<svg width="28" height="28" viewBox="0 0 28 28" fill="none" xmlns="http://www.w3.org/2000/svg">
<path d="M9.33331 2.32422H5.83331C3.90032 2.32422 2.33331 3.8851 2.33331 5.81054V9.29686C2.33331 11.2223 3.90032 12.7832 5.83331 12.7832H9.33331C11.2663 12.7832 12.8333 11.2223 12.8333 9.29686V5.81054C12.8333 3.8851 11.2663 2.32422 9.33331 2.32422Z" fill="#504141"/>
<path d="M22.1666 2.32422H18.6666C16.7336 2.32422 15.1666 3.8851 15.1666 5.81054V9.29686C15.1666 11.2223 16.7336 12.7832 18.6666 12.7832H22.1666C24.0996 12.7832 25.6666 11.2223 25.6666 9.29686V5.81054C25.6666 3.8851 24.0996 2.32422 22.1666 2.32422Z" fill="#504141"/>
<path d="M9.33331 15.1074H5.83331C3.90032 15.1074 2.33331 16.6682 2.33331 18.5937V22.08C2.33331 24.0054 3.90032 25.5663 5.83331 25.5663H9.33331C11.2663 25.5663 12.8333 24.0054 12.8333 22.08V18.5937C12.8333 16.6682 11.2663 15.1074 9.33331 15.1074Z" fill="#504141"/>
<path d="M22.1666 15.1074H18.6666C16.7336 15.1074 15.1666 16.6682 15.1666 18.5937V22.08C15.1666 24.0054 16.7336 25.5663 18.6666 25.5663H22.1666C24.0996 25.5663 25.6666 24.0054 25.6666 22.08V18.5937C25.6666 16.6682 24.0996 15.1074 22.1666 15.1074Z" fill="#504141"/>
</svg>
