<svg width="29" height="24" viewBox="0 0 29 24" fill="none" xmlns="http://www.w3.org/2000/svg">
<g clip-path="url(#clip0_392_121)">
<path d="M16.3171 20.8839C9.31258 20.8839 3.63421 16.2098 3.63421 10.444C3.63421 4.67813 9.31252 0.0040971 16.3171 0.0040971C23.3218 0.0040971 29.0001 4.67818 29.0001 10.444C29.0001 16.2098 23.3217 20.8839 16.3171 20.8839ZM16.3171 2.98694C11.3138 2.98694 7.25792 6.32557 7.25792 10.444C7.25792 14.5625 11.3138 17.9011 16.3171 17.9011C21.3204 17.9011 25.3764 14.5625 25.3764 10.444C25.3764 6.32557 21.3204 2.98694 16.3171 2.98694Z" fill="#076483"/>
<path d="M1.82236 23.8667C1.34074 23.869 0.877865 23.7134 0.535952 23.4342C-0.17454 22.8542 -0.179224 21.9099 0.52546 21.3251C0.528957 21.3222 0.532455 21.3193 0.535952 21.3164L7.34848 15.7087C8.08395 15.1239 9.25613 15.1406 9.96663 15.746C10.6771 16.3514 10.6568 17.3163 9.92135 17.9011L3.10876 23.4342C2.76685 23.7134 2.30397 23.869 1.82236 23.8667Z" fill="#076483"/>
</g>
<defs>
<clipPath id="clip0_392_121">
<rect width="28.5132" height="23.4706" fill="white" transform="scale(1.01707)"/>
</clipPath>
</defs>
</svg>
