<svg width="24" height="12" viewBox="0 0 24 12" fill="none" xmlns="http://www.w3.org/2000/svg">
<path d="M23.7252 5.31306C23.7249 5.31277 23.7247 5.31243 23.7243 5.31214L18.8257 0.281702C18.4587 -0.0951462 17.8651 -0.0937438 17.4998 0.28499C17.1346 0.663676 17.136 1.27618 17.503 1.65308L20.7919 5.03044H0.937506C0.419721 5.03044 0 5.46354 0 5.99783C0 6.53212 0.419721 6.96522 0.937506 6.96522H20.7919L17.503 10.3426C17.136 10.7195 17.1346 11.332 17.4999 11.7107C17.8652 12.0895 18.4588 12.0908 18.8257 11.714L23.7244 6.68352C23.7247 6.68323 23.7249 6.68289 23.7252 6.6826C24.0924 6.30445 24.0912 5.68996 23.7252 5.31306Z" fill="white"/>
</svg>
