<svg width="28" height="28" viewBox="0 0 28 28" fill="none" xmlns="http://www.w3.org/2000/svg">
<path d="M22.167 5.81078H21.0003V3.48657C21.0003 3.17836 20.8774 2.88277 20.6586 2.66484C20.4398 2.4469 20.143 2.32446 19.8336 2.32446C19.5242 2.32446 19.2275 2.4469 19.0087 2.66484C18.7899 2.88277 18.667 3.17836 18.667 3.48657V5.81078H9.33362V3.48657C9.33362 3.17836 9.2107 2.88277 8.99191 2.66484C8.77312 2.4469 8.47637 2.32446 8.16695 2.32446C7.85753 2.32446 7.56079 2.4469 7.34199 2.66484C7.1232 2.88277 7.00028 3.17836 7.00028 3.48657V5.81078H5.83362C4.90536 5.81078 4.01512 6.17809 3.35874 6.8319C2.70237 7.48571 2.33362 8.37247 2.33362 9.2971V10.4592H25.667V9.2971C25.667 8.37247 25.2982 7.48571 24.6418 6.8319C23.9854 6.17809 23.0952 5.81078 22.167 5.81078Z" fill="black"/>
<path d="M2.33362 22.0803C2.33362 23.0049 2.70237 23.8917 3.35874 24.5455C4.01512 25.1993 4.90536 25.5666 5.83362 25.5666H22.167C23.0952 25.5666 23.9854 25.1993 24.6418 24.5455C25.2982 23.8917 25.667 23.0049 25.667 22.0803V12.7834H2.33362V22.0803Z" fill="#050505"/>
</svg>
