<svg width="15" height="15" viewBox="0 0 15 15" fill="none" xmlns="http://www.w3.org/2000/svg">
<path fill-rule="evenodd" clip-rule="evenodd" d="M5.49839 2.62494C3.63444 2.62494 2.12341 4.13598 2.12341 5.99994C2.12341 6.86409 2.44868 7.65318 2.98287 8.25003C3.12099 8.40435 3.35807 8.41748 3.51239 8.27936C3.66671 8.14124 3.67984 7.90416 3.54172 7.74984C3.12584 7.28518 2.8734 6.67249 2.8734 5.99994C2.8734 4.55019 4.04865 3.37494 5.49839 3.37494H7.49839C8.94813 3.37494 10.1234 4.55019 10.1234 5.99994C10.1234 7.44968 8.94813 8.62493 7.49839 8.62493H6.49839C6.29129 8.62493 6.12339 8.79283 6.12339 8.99993C6.12339 9.20704 6.29129 9.37493 6.49839 9.37493H7.49839C9.36234 9.37493 10.8734 7.86389 10.8734 5.99994C10.8734 4.13598 9.36234 2.62494 7.49839 2.62494H5.49839Z" fill="#413B89"/>
<path d="M4.87219 8.99914C4.87219 7.54939 6.04743 6.37414 7.49718 6.37414H8.49717C8.70428 6.37414 8.87217 6.20625 8.87217 5.99914C8.87217 5.79203 8.70428 5.62414 8.49717 5.62414H7.49718C5.63322 5.62414 4.12219 7.13518 4.12219 8.99914C4.12219 10.8631 5.63322 12.3741 7.49718 12.3741H9.49717C11.3611 12.3741 12.8722 10.8631 12.8722 8.99914C12.8722 8.13498 12.5469 7.3459 12.0127 6.74905C11.8746 6.59472 11.6375 6.58159 11.4832 6.71971C11.3289 6.85783 11.3157 7.09491 11.4538 7.24923C11.8697 7.71389 12.1222 8.32659 12.1222 8.99914C12.1222 10.4489 10.9469 11.6241 9.49717 11.6241H7.49718C6.04743 11.6241 4.87219 10.4489 4.87219 8.99914Z" fill="#FFEDDE"/>
</svg>
