<svg width="28" height="28" viewBox="0 0 28 28" fill="none" xmlns="http://www.w3.org/2000/svg">
<path d="M22.1667 7.19033V5.81251C22.1656 4.88786 21.7966 4.00138 21.1404 3.34755C20.4843 2.69373 19.5946 2.32597 18.6667 2.32495H7C6.08275 2.32448 5.20225 2.68417 4.5493 3.3261C3.89635 3.96802 3.52354 4.84047 3.51167 5.75438C3.51085 5.77449 3.5 5.79182 3.5 5.81251V22.0878C3.50271 23.0119 3.87233 23.8974 4.52812 24.5509C5.18391 25.2043 6.07258 25.5726 7 25.5753H21C21.9274 25.5726 22.8161 25.2043 23.4719 24.5509C24.1277 23.8974 24.4973 23.0119 24.5 22.0878V10.4626C24.4965 9.74415 24.2704 9.04431 23.8528 8.45865C23.4352 7.87299 22.8464 7.43005 22.1667 7.19033ZM18.6667 20.9253C18.6657 21.2333 18.5425 21.5284 18.3239 21.7463C18.1053 21.9641 17.8091 22.0868 17.5 22.0878H10.5C10.1909 22.0868 9.89465 21.9641 9.67606 21.7463C9.45747 21.5284 9.33426 21.2333 9.33333 20.9253C9.18985 20.0177 9.28901 19.0885 9.62083 18.2313C9.95264 17.374 10.5054 16.6192 11.2233 16.0427C10.7582 15.4432 10.504 14.7079 10.5 13.9501C10.5 13.0252 10.8687 12.1381 11.5251 11.4841C12.1815 10.83 13.0717 10.4626 14 10.4626C14.9283 10.4626 15.8185 10.83 16.4749 11.4841C17.1313 12.1381 17.5 13.0252 17.5 13.9501C17.496 14.7079 17.2418 15.4432 16.7767 16.0427C17.4942 16.6195 18.0466 17.3744 18.3784 18.2315C18.7102 19.0887 18.8096 20.0177 18.6667 20.9253ZM19.8333 6.97503H7.14187C6.985 6.99102 6.82651 6.97525 6.67591 6.92867C6.52532 6.88208 6.38573 6.80563 6.26554 6.70393C6.14535 6.60222 6.04703 6.47735 5.9765 6.33682C5.90597 6.19629 5.86468 6.043 5.85511 5.88617C5.84554 5.72933 5.86789 5.57219 5.92081 5.42418C5.97374 5.27617 6.05615 5.14035 6.16309 5.02488C6.27003 4.90942 6.3993 4.81668 6.54312 4.75226C6.68694 4.68783 6.84234 4.65305 7 4.64999H18.6667C18.976 4.6503 19.2726 4.77288 19.4913 4.99082C19.71 5.20877 19.833 5.50428 19.8333 5.81251V6.97503Z" fill="black"/>
</svg>
