<svg width="24" height="12" viewBox="0 0 24 12" fill="none" xmlns="http://www.w3.org/2000/svg">
<path d="M23.7249 5.31301C23.7247 5.31272 23.7244 5.31238 23.7241 5.31209L18.8255 0.281699C18.4585 -0.0951452 17.8649 -0.0937428 17.4996 0.284987C17.1344 0.663669 17.1358 1.27617 17.5028 1.65306L20.7917 5.03039H0.937496C0.419717 5.03039 0 5.46348 0 5.99777C0 6.53205 0.419717 6.96515 0.937496 6.96515H20.7916L17.5028 10.3425C17.1358 10.7194 17.1344 11.3319 17.4997 11.7105C17.865 12.0893 18.4586 12.0906 18.8255 11.7138L23.7241 6.68345C23.7244 6.68316 23.7247 6.68282 23.725 6.68253C24.0922 6.30438 24.091 5.6899 23.7249 5.31301Z" fill="white"/>
</svg>
