<svg width="215" height="30" viewBox="0 0 215 30" fill="none" xmlns="http://www.w3.org/2000/svg">
<path fill-rule="evenodd" clip-rule="evenodd" d="M22.3907 10.8261C23.1983 10.3525 23.7323 9.70618 23.9948 8.88592C23.2089 9.28395 22.426 9.55638 21.6444 9.70618C20.9416 8.98634 20.0511 8.62012 18.9847 8.62012C17.9415 8.62012 17.0609 8.9691 16.341 9.64752C15.6264 10.3316 15.2657 11.1631 15.2657 12.1309C15.2657 12.4262 15.3045 12.689 15.3821 12.913C12.3069 12.8126 9.7604 11.5956 7.75474 9.25479C7.41506 9.82682 7.24487 10.4114 7.24487 11.0143C7.24487 12.2548 7.79355 13.2378 8.88984 13.9586C8.26496 13.9089 7.71379 13.7581 7.24487 13.5116C7.24487 14.3964 7.51796 15.1368 8.06486 15.7878C8.61354 16.4317 9.31889 16.844 10.1802 17.0186C9.86792 17.0949 9.53857 17.131 9.20103 17.131C8.88877 17.131 8.66766 17.1055 8.53699 17.0521C8.767 17.7733 9.20103 18.3592 9.82769 18.807C10.4529 19.2564 11.1718 19.4947 11.9793 19.5149C10.6477 20.5115 9.12484 21.0053 7.40189 21.0053C6.97996 21.0053 6.68123 21 6.5 20.9675C8.1966 22.0188 10.0855 22.5401 12.1752 22.5401C14.3143 22.5401 16.2043 22.0228 17.85 20.9901C19.4942 19.962 20.708 18.6943 21.4881 17.2019C22.2715 15.7099 22.6599 14.1588 22.6599 12.5375V12.0908C23.4179 11.5482 24.0311 10.9354 24.5 10.26C23.8203 10.5397 23.1174 10.7289 22.3907 10.8261Z" fill="white"/>
<ellipse cx="15.5" cy="15" rx="15" ry="14.5" stroke="white"/>
<path fill-rule="evenodd" clip-rule="evenodd" d="M156.314 9.33111C156.314 9.33111 153.432 8.2874 153.432 10.4114V12.0162H156.244L155.995 14.6669H153.432V23.6998H149.988V14.6669H148.3V12.0162H149.988V10.4114V9.22726C149.988 9.22726 149.952 7.07472 152.782 6.45448C154.769 6.01693 156.7 6.64668 156.7 6.64668L156.314 9.33111Z" fill="white"/>
<ellipse cx="152.5" cy="15" rx="15" ry="14.5" stroke="white"/>
<path fill-rule="evenodd" clip-rule="evenodd" d="M61.7002 19.0434C62.0866 19.4345 62.5553 19.6317 63.1085 19.6317H67.0864C67.6413 19.6317 68.1123 19.8312 68.5081 20.2303C68.9053 20.6283 69.1 21.1088 69.1 21.6662C69.1 22.2245 68.9036 22.704 68.5081 23.1004C68.1123 23.5011 67.6413 23.7 67.0884 23.7H63.1106C61.4545 23.7 60.0374 23.105 58.8628 21.9155C57.6861 20.7256 57.1 19.293 57.1 17.6164V9.4954C57.1 8.92058 57.2947 8.43745 57.6861 8.04533C58.0779 7.65552 58.556 7.45996 59.1196 7.45996C59.6688 7.45996 60.1378 7.65849 60.5313 8.05753C60.9231 8.45789 61.1178 8.9351 61.1178 9.49375V11.5282H67.079C67.6363 11.5282 68.1083 11.7267 68.5038 12.1274C68.9043 12.5258 69.0993 13.002 69.0993 13.564C69.0993 14.1187 68.9022 14.6008 68.5068 14.9995C68.1123 15.3969 67.6413 15.5974 67.0864 15.5974H61.1184V17.6134C61.1184 18.1744 61.3108 18.6506 61.7002 19.0434Z" fill="white"/>
<ellipse cx="62.5" cy="15" rx="15" ry="14.5" stroke="white"/>
<mask id="mask0_381_2973" style="mask-type:luminance" maskUnits="userSpaceOnUse" x="192" y="8" width="16" height="15">
<path fill-rule="evenodd" clip-rule="evenodd" d="M192.9 8.62012H207.3V22.5401H192.9V8.62012Z" fill="white"/>
</mask>
<g mask="url(#mask0_381_2973)">
<path fill-rule="evenodd" clip-rule="evenodd" d="M206.25 13.4049H202.991L202.947 13.3632C202.19 12.6425 201.178 12.2458 200.1 12.2458C199.022 12.2458 198.011 12.6425 197.252 13.3632L197.209 13.4049H193.95V10.4764C193.95 9.98895 194.316 9.63514 194.82 9.63514H205.38C205.884 9.63514 206.25 9.98895 206.25 10.4764V13.4049ZM200.1 19.0606C198.42 19.0606 197.1 17.7843 197.1 16.1603C197.1 14.5365 198.42 13.2599 200.1 13.2599C201.78 13.2599 203.1 14.5365 203.1 16.1603C203.1 17.7843 201.78 19.0606 200.1 19.0606ZM205.38 8.62012H194.82C193.74 8.62012 192.9 9.43242 192.9 10.4764V20.6844C192.9 21.7278 193.74 22.5401 194.82 22.5401H205.38C206.46 22.5401 207.3 21.7278 207.3 20.6844V10.4764C207.3 9.43242 206.46 8.62012 205.38 8.62012Z" fill="white"/>
</g>
<ellipse cx="199.5" cy="15" rx="15" ry="14.5" stroke="white"/>
<path fill-rule="evenodd" clip-rule="evenodd" d="M116.5 23.7H112.766V16.0495C112.766 15.154 112.497 14.5262 111.334 14.5262C109.405 14.5262 109.033 16.0495 109.033 16.0495V23.7H105.3V11.3267H109.033V12.5096C109.567 12.1217 110.9 11.328 112.766 11.328C113.977 11.328 116.5 12.0149 116.5 16.1569V23.7Z" fill="white"/>
<path fill-rule="evenodd" clip-rule="evenodd" d="M101.299 10.5533C100.415 10.5533 99.7 9.85945 99.7 9.00601C99.7 8.15411 100.417 7.45996 101.299 7.45996C102.183 7.46181 102.9 8.15534 102.9 9.00601C102.9 9.85945 102.183 10.5533 101.299 10.5533Z" fill="white"/>
<path fill-rule="evenodd" clip-rule="evenodd" d="M102.9 23.7H99.7V11.3267H102.9V23.7Z" fill="white"/>
<ellipse cx="107.5" cy="15" rx="15" ry="14.5" stroke="white"/>
</svg>
