<svg width="28" height="28" viewBox="0 0 28 28" fill="none" xmlns="http://www.w3.org/2000/svg">
<path d="M21.0001 10.8985C21.0002 9.91173 20.8548 8.93027 20.5687 7.98555C20.1625 6.64173 19.4776 5.39785 18.5585 4.3344C17.6393 3.27096 16.5064 2.41162 15.2329 1.81201C13.9595 1.21239 12.5739 0.885842 11.1658 0.853494C9.75766 0.821146 8.35843 1.08372 7.05859 1.62422C5.75875 2.16472 4.58726 2.97111 3.61992 3.99122C2.65259 5.01133 1.91094 6.22244 1.44297 7.54618C0.975008 8.86992 0.791145 10.2768 0.90328 11.6758C1.01542 13.0748 1.42105 14.4348 2.09394 15.6678L0.908319 19.8145C0.87122 19.9442 0.864847 20.0808 0.8897 20.2134C0.914553 20.346 0.969955 20.4711 1.05155 20.5788C1.13314 20.6864 1.23869 20.7738 1.3599 20.8339C1.48111 20.894 1.61467 20.9253 1.75007 20.9253C1.83112 20.9251 1.91178 20.9139 1.98982 20.8921L6.1522 19.7098C6.74276 20.0323 7.36568 20.2921 8.01069 20.485C8.95862 20.7772 9.9453 20.9257 10.9376 20.9253C13.6054 20.9223 16.1631 19.8649 18.0495 17.9852C19.9359 16.1055 20.9971 13.5569 21.0001 10.8985Z" fill="#111010"/>
<path d="M27.0918 25.9178L25.9062 21.7711C27.1172 19.5502 27.4402 16.9552 26.8105 14.5069C26.1808 12.0585 24.6449 9.9382 22.5112 8.57153C22.8618 10.2803 22.826 12.0453 22.4066 13.7386C21.9871 15.4319 21.1945 17.0108 20.0863 18.3607C18.978 19.7106 17.582 20.7977 15.9995 21.5429C14.417 22.2881 12.6879 22.6729 10.9376 22.6691C10.1577 22.6667 9.38001 22.5864 8.61621 22.4293C9.53107 23.8336 10.782 24.9892 12.2564 25.792C13.7308 26.5949 15.3824 27.0198 17.0626 27.0286C18.7348 27.0288 20.3804 26.6112 21.8488 25.814L26.0103 26.9954C26.0884 27.0172 26.169 27.0284 26.2501 27.0286C26.3855 27.0286 26.519 26.9973 26.6403 26.9372C26.7615 26.8771 26.867 26.7897 26.9486 26.6821C27.0302 26.5744 27.0856 26.4493 27.1105 26.3167C27.1353 26.1841 27.1289 26.0475 27.0918 25.9178Z" fill="#111010"/>
</svg>
