<svg width="28" height="28" viewBox="0 0 28 28" fill="none" xmlns="http://www.w3.org/2000/svg">
<path d="M22.1667 7.18787V5.81054C22.1656 4.88622 21.7966 4.00005 21.1404 3.34646C20.4843 2.69287 19.5946 2.32523 18.6667 2.32422H7C6.08275 2.32375 5.20225 2.68331 4.5493 3.32501C3.89635 3.96671 3.52354 4.83884 3.51167 5.75243C3.51085 5.77254 3.5 5.78985 3.5 5.81054V22.08C3.50271 23.0038 3.87233 23.889 4.52812 24.5422C5.18391 25.1955 6.07258 25.5636 7 25.5663H21C21.9274 25.5636 22.8161 25.1955 23.4719 24.5422C24.1277 23.889 24.4973 23.0038 24.5 22.08V10.459C24.4965 9.74078 24.2704 9.0412 23.8528 8.45574C23.4352 7.87029 22.8464 7.42751 22.1667 7.18787ZM18.6667 20.9179C18.6657 21.2258 18.5425 21.5209 18.3239 21.7386C18.1053 21.9564 17.8091 22.0791 17.5 22.08H10.5C10.1909 22.0791 9.89465 21.9564 9.67606 21.7386C9.45747 21.5209 9.33426 21.2258 9.33333 20.9179C9.18985 20.0107 9.28901 19.0818 9.62083 18.2249C9.95264 17.368 10.5054 16.6134 11.2233 16.0371C10.7582 15.4378 10.504 14.7027 10.5 13.9453C10.5 13.0207 10.8687 12.1339 11.5251 11.4801C12.1815 10.8263 13.0717 10.459 14 10.459C14.9283 10.459 15.8185 10.8263 16.4749 11.4801C17.1313 12.1339 17.5 13.0207 17.5 13.9453C17.496 14.7027 17.2418 15.4378 16.7767 16.0371C17.4942 16.6137 18.0466 17.3684 18.3784 18.2252C18.7102 19.082 18.8096 20.0107 18.6667 20.9179ZM19.8333 6.97264H7.14187C6.985 6.98864 6.82651 6.97287 6.67591 6.9263C6.52532 6.87973 6.38573 6.80331 6.26554 6.70164C6.14535 6.59997 6.04703 6.47514 5.9765 6.33466C5.90597 6.19418 5.86468 6.04095 5.85511 5.88417C5.84554 5.72739 5.86789 5.57031 5.92081 5.42235C5.97374 5.27439 6.05615 5.13862 6.16309 5.02319C6.27003 4.90777 6.3993 4.81507 6.54312 4.75067C6.68694 4.68626 6.84234 4.65149 7 4.64843H18.6667C18.976 4.64874 19.2726 4.77127 19.4913 4.98915C19.71 5.20702 19.833 5.50242 19.8333 5.81054V6.97264Z" fill="black"/>
</svg>
