<svg width="27" height="20" viewBox="0 0 27 20" fill="none" xmlns="http://www.w3.org/2000/svg">
<rect width="1609" height="1196" transform="translate(-750.659 -303.316) scale(1.02883)" fill="black"/>
<path d="M22.95 0H4.05C2.97587 0 1.94574 0.391535 1.18622 1.08847C0.426695 1.78541 0 2.73065 0 3.71627V16.1038C0 17.0895 0.426695 18.0347 1.18622 18.7316C1.94574 19.4286 2.97587 19.8201 4.05 19.8201H22.95C24.0241 19.8201 25.0542 19.4286 25.8138 18.7316C26.5733 18.0347 27 17.0895 27 16.1038V3.71627C27 2.73065 26.5733 1.78541 25.8138 1.08847C25.0542 0.391535 24.0241 0 22.95 0ZM22.0455 2.47751L13.5 8.36161L4.9545 2.47751H22.0455ZM22.95 17.3426H4.05C3.69195 17.3426 3.34858 17.2121 3.0954 16.9798C2.84223 16.7475 2.7 16.4324 2.7 16.1038V4.02596L12.69 10.9011C12.9237 11.0619 13.2079 11.1488 13.5 11.1488C13.7921 11.1488 14.0763 11.0619 14.31 10.9011L24.3 4.02596V16.1038C24.3 16.4324 24.1577 16.7475 23.9046 16.9798C23.6514 17.2121 23.308 17.3426 22.95 17.3426Z" fill="#231F20"/>
</svg>
