<svg width="42" height="36" viewBox="0 0 42 36" fill="none" xmlns="http://www.w3.org/2000/svg">
<path d="M41.3751 7.40549C39.9139 7.96049 38.3441 8.33549 36.6939 8.50499C38.3774 7.64099 39.6689 6.26999 40.2779 4.63799C38.7029 5.43899 36.9581 6.02099 35.1014 6.33299C33.6139 4.97699 31.4964 4.12799 29.1514 4.12799C24.6504 4.12799 20.9999 7.25699 20.9999 11.118C20.9999 11.664 21.0734 12.195 21.2099 12.708C14.4321 12.4155 8.4279 9.63299 4.4064 5.40599C3.7064 6.44099 3.3039 7.64099 3.3039 8.91899C3.3039 11.343 4.74415 13.4835 6.9299 14.736C5.5929 14.6985 4.3364 14.385 3.2374 13.8615V13.9515C3.2374 17.337 6.04615 20.1615 9.77715 20.8035C9.09115 20.9625 8.3719 21.0465 7.6299 21.0465C7.1049 21.0465 6.59215 21.0045 6.09515 20.9235C7.1329 23.6985 10.1429 25.7205 13.7111 25.7745C10.9199 27.6495 7.40415 28.767 3.58565 28.767C2.92765 28.767 2.2784 28.734 1.63965 28.6695C5.24815 30.654 9.53215 31.809 14.1346 31.809C29.1321 31.809 37.3309 21.162 37.3309 11.928C37.3309 11.628 37.3221 11.325 37.3064 11.025C38.8989 10.038 40.2814 8.80949 41.3716 7.40999L41.3751 7.40549Z" fill="#1DA1F2"/>
</svg>
