<svg width="90" height="90" viewBox="0 0 90 90" fill="none" xmlns="http://www.w3.org/2000/svg">
<path d="M7.4359 19.5C7.4359 18.6716 8.10179 18 8.92308 18H58V15H8.92308C6.45921 15 4.46154 17.0149 4.46154 19.5V63H1.48718C0.66589 63 0 63.6716 0 64.5V69C0 70.6567 1.33178 72 2.97436 72H29.7436V69H2.97436V66H29.7436V63H7.4359V19.5Z" fill="white"/>
<path d="M67 45H70V48H67V45Z" fill="white"/>
<path fill-rule="evenodd" clip-rule="evenodd" d="M65.5 42H83.5C85.9851 42 88 39.9851 88 37.5V4.5C88 2.01489 85.9851 0 83.5 0H65.5C63.0149 0 61 2.01489 61 4.5V37.5C61 39.9851 63.0149 42 65.5 42ZM83.5 39H65.5C64.6716 39 64 38.3284 64 37.5V33H85V37.5C85 38.3284 84.3284 39 83.5 39ZM83.5 3H65.5C64.6716 3 64 3.67163 64 4.5V30H85V4.5C85 3.67163 84.3284 3 83.5 3Z" fill="white"/>
<path d="M73 35H76V38H73V35Z" fill="white"/>
<path fill-rule="evenodd" clip-rule="evenodd" d="M28.4444 23C34.8231 23.0071 39.9929 28.1769 40 34.5556C40 35.3532 39.3532 36 38.5556 36H28.4444C27.6468 36 27 35.3532 27 34.5556V24.4444C27 23.6468 27.6468 23 28.4444 23ZM29.8889 26.0088V33.1111H36.9912C36.3698 29.4767 33.5233 26.6302 29.8889 26.0088Z" fill="white"/>
<path fill-rule="evenodd" clip-rule="evenodd" d="M24.9375 37.0625H33.5625C34.3564 37.0625 35 37.7061 35 38.5C35 44.8515 29.8515 50 23.5 50C17.1485 50 12 44.8515 12 38.5C12 32.1485 17.1485 27 23.5 27C24.2939 27 24.9375 27.6436 24.9375 28.4375V37.0625ZM14.8975 39.2216C15.2723 43.6927 19.0134 47.1292 23.5 47.125C27.7072 47.1194 31.2989 44.0851 32.0057 39.9375H23.5C22.7061 39.9375 22.0625 39.2939 22.0625 38.5V29.9943C17.6377 30.7383 14.5219 34.7497 14.8975 39.2216Z" fill="white"/>
<path d="M47 22H43.6008C43.1502 22 42.7178 22.1707 42.3992 22.4742L39 25.7113L41.4033 28L44.3046 25.2371H47V22Z" fill="white"/>
<path d="M50 22H56V25H50V22Z" fill="white"/>
<path d="M50 29H56V32H50V29Z" fill="white"/>
<path d="M10 55H28V58H10V55Z" fill="white"/>
<path d="M38 42H46V45H38V42Z" fill="white"/>
<path fill-rule="evenodd" clip-rule="evenodd" d="M52 48C49.791 48 48 46.209 48 44C48 41.791 49.791 40 52 40C54.209 40 56 41.791 56 44C56 46.209 54.209 48 52 48ZM53.3333 44C53.3333 43.2637 52.7363 42.6667 52 42.6667C51.2637 42.6667 50.6667 43.2637 50.6667 44C50.6667 44.7363 51.2637 45.3333 52 45.3333C52.7363 45.3333 53.3333 44.7363 53.3333 44Z" fill="white"/>
<path d="M74 7H82V10H74V7Z" fill="white"/>
<path d="M74 14H82V17H74V14Z" fill="white"/>
<path d="M73 20H76V23H73V20Z" fill="white"/>
<path d="M80 20H83V23H80V20Z" fill="white"/>
<path fill-rule="evenodd" clip-rule="evenodd" d="M85.5 51H37.5C35.0149 51 33 53.0149 33 55.5V85.5C33 87.9851 35.0149 90 37.5 90H85.5C87.9851 90 90 87.9851 90 85.5V55.5C90 53.0149 87.9851 51 85.5 51ZM36 85.5V55.5C36 54.6716 36.6716 54 37.5 54H78V87H37.5C36.6716 87 36 86.3284 36 85.5ZM85.5 87C86.3284 87 87 86.3284 87 85.5V55.5C87 54.6716 86.3284 54 85.5 54H81V87H85.5Z" fill="white"/>
<path d="M82 69H85V72H82V69Z" fill="white"/>
<path d="M72 79.9333V63.0667H69V79.9333H66V67.6667H63V79.9333H60V70.7333H57V79.9333H54V66.1333H51V79.9333H48V73.8H45V79.9333H42V60H39V81.4667C39 82.3134 39.6716 83 40.5 83H75V79.9333H72Z" fill="white"/>
</svg>
