<svg width="28" height="28" viewBox="0 0 28 28" fill="none" xmlns="http://www.w3.org/2000/svg">
<path d="M22.1668 5.81275H21.0002V3.48771C21.0002 3.17939 20.8772 2.8837 20.6585 2.66569C20.4397 2.44767 20.1429 2.3252 19.8335 2.3252C19.5241 2.3252 19.2273 2.44767 19.0085 2.66569C18.7897 2.8837 18.6668 3.17939 18.6668 3.48771V5.81275H9.3335V3.48771C9.3335 3.17939 9.21058 2.8837 8.99179 2.66569C8.77299 2.44767 8.47625 2.3252 8.16683 2.3252C7.85741 2.3252 7.56066 2.44767 7.34187 2.66569C7.12308 2.8837 7.00016 3.17939 7.00016 3.48771V5.81275H5.8335C4.90524 5.81275 4.015 6.18019 3.35862 6.83423C2.70225 7.48828 2.3335 8.37535 2.3335 9.30031V10.4628H25.6668V9.30031C25.6668 8.37535 25.2981 7.48828 24.6417 6.83423C23.9853 6.18019 23.0951 5.81275 22.1668 5.81275Z" fill="black"/>
<path d="M2.3335 22.088C2.3335 23.0129 2.70225 23.9 3.35862 24.5541C4.015 25.2081 4.90524 25.5755 5.8335 25.5755H22.1668C23.0951 25.5755 23.9853 25.2081 24.6417 24.5541C25.2981 23.9 25.6668 23.0129 25.6668 22.088V12.7878H2.3335V22.088Z" fill="#050505"/>
</svg>
