<svg width="135" height="34" viewBox="0 0 135 34" fill="none" xmlns="http://www.w3.org/2000/svg">
<path d="M53.2767 19.9142L60.726 29.1428H54.8438L48.2142 20.6672V29.1428H43.3927V4.85722H48.2142V19.1372L54.3375 12.1428H60.4847L53.2767 19.9142ZM33.991 11.6572C32.9353 11.6731 31.8992 11.9466 30.9714 12.4541C30.0436 12.9616 29.2517 13.6881 28.6635 14.5714V12.1428H24.1073V29.1428H28.9285V21.2014C28.8652 20.625 28.9203 20.0416 29.0905 19.4876C29.2606 18.9336 29.5422 18.4207 29.9175 17.9811C30.2929 17.5414 30.7541 17.1843 31.2724 16.9319C31.7907 16.6795 32.355 16.5373 32.9302 16.5142C35.7267 16.5142 36.1608 19.2828 36.1608 21.2014V29.1428H40.9823V20.1328C40.9823 14.79 39.2222 11.6572 34.0875 11.6572H33.991ZM77.1427 21.0314C77.1612 21.3873 77.1612 21.7441 77.1427 22.1H64.4865V22.27C64.692 23.2827 65.2489 24.1886 66.0574 24.825C66.8659 25.4615 67.8731 25.7868 68.8983 25.7428C69.7115 25.7784 70.5235 25.6484 71.2857 25.3605C72.0478 25.0726 72.7445 24.6327 73.334 24.0672L76.5403 26.4958C75.524 27.5405 74.3018 28.359 72.9523 28.8986C71.6028 29.4382 70.156 29.6869 68.7052 29.6286C67.5038 29.7051 66.3001 29.521 65.1753 29.0886C64.0506 28.6563 63.031 27.9858 62.1855 27.1225C61.34 26.2592 60.6882 25.2232 60.2743 24.0844C59.8603 22.9456 59.6937 21.7306 59.7858 20.5214C59.7611 19.3277 59.9807 18.1417 60.431 17.0372C60.8812 15.9328 61.5525 14.9336 62.4029 14.102C63.2533 13.2704 64.2646 12.6241 65.3738 12.2035C66.483 11.7829 67.6663 11.5969 68.85 11.6572C73.3823 11.6572 77.1427 14.8872 77.1427 21.0314ZM72.659 18.9428C72.6413 18.4617 72.5265 17.9894 72.3217 17.5545C72.1169 17.1196 71.8263 16.7312 71.4677 16.4131C71.1091 16.095 70.6899 15.8538 70.2357 15.7041C69.7816 15.5545 69.3019 15.4996 68.826 15.5428C66.7061 15.312 64.7863 16.8162 64.4865 18.9428H72.659ZM4.8215 4.85722H0V29.1428H14.4642V24.2861H4.8215V4.85722ZM91.6073 4.85722H96.4285V29.1428H91.8722V27.4428C91.2937 28.1609 90.5563 28.7326 89.7191 29.1121C88.882 29.4917 87.9682 29.6686 87.051 29.6286C85.9304 29.5996 84.8276 29.3401 83.8103 28.8659C82.793 28.3918 81.8826 27.713 81.1353 26.8714C80.3879 26.0298 79.8193 25.0431 79.4644 23.972C79.1095 22.9008 78.9758 21.7679 79.0715 20.6428C78.9577 19.5161 79.0779 18.3779 79.4245 17.3005C79.7712 16.2232 80.3366 15.2303 81.0849 14.3851C81.8332 13.5399 82.7479 12.8609 83.7709 12.3913C84.7938 11.9216 85.9026 11.6716 87.0267 11.6572C87.864 11.6203 88.7002 11.7515 89.4866 12.0434C90.273 12.3353 90.9939 12.7819 91.6073 13.3572V4.85722ZM91.9688 20.6428C92.0446 20.082 92.0001 19.5113 91.8384 18.9693C91.6768 18.4273 91.4016 17.9265 91.0315 17.5007C90.6614 17.0749 90.2049 16.734 89.6929 16.501C89.1809 16.268 88.6253 16.1483 88.0635 16.15C85.7572 16.3187 84.0096 18.3167 84.134 20.6428C84.0096 22.9689 85.7572 24.9672 88.0635 25.1358C88.6253 25.1375 89.181 25.0178 89.693 24.7848C90.205 24.5518 90.6615 24.2109 91.0316 23.785C91.4017 23.3592 91.6769 22.8584 91.8385 22.3163C92.0002 21.7743 92.0446 21.2036 91.9688 20.6428ZM19.2858 4.37139C18.5104 4.38246 17.7682 4.68949 17.2088 5.23048C16.6495 5.77148 16.3148 6.50613 16.2722 7.28609C16.2722 8.96245 17.6215 10.3217 19.2858 10.3217C20.95 10.3217 22.2987 8.96219 22.2987 7.28609C22.2561 6.50622 21.9214 5.77167 21.3622 5.23074C20.8029 4.68981 20.0607 4.38279 19.2855 4.37166L19.2858 4.37139ZM16.875 29.1428H21.6965V12.1428H16.875V29.1428ZM135 2.42861V31.5714C135 32.2155 134.746 32.8332 134.294 33.2887C133.842 33.7441 133.229 34 132.589 34H103.661C103.021 34 102.408 33.7441 101.956 33.2887C101.504 32.8332 101.25 32.2155 101.25 31.5714V2.42861C101.25 1.7845 101.504 1.16678 101.956 0.711323C102.408 0.255871 103.021 0 103.661 0L132.589 0C133.229 0 133.842 0.255871 134.294 0.711323C134.746 1.16678 135 1.7845 135 2.42861ZM110.893 12.1428H106.072V29.1428H110.893V12.1428ZM111.495 7.28583C111.495 5.6092 110.146 4.25 108.482 4.25C106.818 4.25 105.469 5.6092 105.469 7.28583C105.469 8.96219 106.818 10.3214 108.482 10.3214C110.146 10.3214 111.495 8.96219 111.495 7.28583ZM130.178 20.1328C130.178 14.79 128.419 11.6572 123.284 11.6572C122.212 11.6573 121.156 11.9232 120.21 12.4314C119.264 12.9396 118.457 13.6746 117.86 14.5714V12.1428H113.303V29.1428H118.125V21.2014C118.062 20.625 118.117 20.0416 118.287 19.4876C118.457 18.9336 118.739 18.4207 119.114 17.9811C119.489 17.5414 119.951 17.1843 120.469 16.9319C120.987 16.6795 121.552 16.5373 122.127 16.5142C124.923 16.5142 125.357 19.2828 125.357 21.2014V29.1428H130.178V20.1328Z" fill="#0A66C2"/>
</svg>
