<svg width="28" height="31" viewBox="0 0 28 31" fill="none" xmlns="http://www.w3.org/2000/svg">
<path d="M13.9999 2.58325C11.7517 2.58332 9.55146 3.30253 7.66379 4.65436C5.77611 6.0062 4.28142 7.93308 3.35953 10.2032C2.43763 12.4733 2.1278 14.99 2.4673 17.4505C2.8068 19.911 3.78117 22.2105 5.27321 24.0723C5.38224 24.2081 5.51591 24.317 5.66549 24.3917C5.81507 24.4665 5.97721 24.5055 6.14132 24.5062C16.1001 24.5506 11.6299 24.5411 21.8298 24.5377C21.9939 24.5378 22.1562 24.4996 22.306 24.4255C22.4558 24.3513 22.5898 24.243 22.6991 24.1076C24.1998 22.2487 25.1824 19.9488 25.5286 17.4852C25.8747 15.0217 25.5694 12.5 24.6497 10.2243C23.73 7.94858 22.235 6.0162 20.3453 4.66035C18.4555 3.3045 16.2517 2.58311 13.9999 2.58325ZM19.3558 12.6668L17.3165 14.3201C17.4332 14.7003 17.4951 15.0984 17.4999 15.4999C17.5031 16.3665 17.245 17.2094 16.7665 17.8951C16.2879 18.5808 15.6163 19.0701 14.8582 19.2853C14.1 19.5005 13.2987 19.4294 12.5812 19.0831C11.8636 18.7369 11.2711 18.1355 10.8973 17.3741C10.5236 16.6127 10.3901 15.735 10.518 14.8801C10.6459 14.0252 11.0279 13.2421 11.6034 12.6548C12.179 12.0675 12.9151 11.7098 13.6951 11.6382C14.4751 11.5666 15.2544 11.7854 15.9094 12.2598L17.9773 10.5829C18.2272 10.3872 18.5365 10.3081 18.8386 10.3626C19.1407 10.417 19.4114 10.6008 19.5923 10.8742C19.7731 11.1476 19.8497 11.4887 19.8055 11.8241C19.7612 12.1594 19.5997 12.4621 19.3558 12.6668Z" fill="#4D3737"/>
<path d="M13.9999 16.7916C14.6443 16.7916 15.1666 16.2133 15.1666 15.4999C15.1666 14.7866 14.6443 14.2083 13.9999 14.2083C13.3556 14.2083 12.8333 14.7866 12.8333 15.4999C12.8333 16.2133 13.3556 16.7916 13.9999 16.7916Z" fill="#4D3737"/>
</svg>
