<svg width="32" height="32" viewBox="0 0 32 32" fill="none" xmlns="http://www.w3.org/2000/svg">
<path d="M15.9999 22C12.8395 22 10.2811 19.5537 10.0457 16.4537L5.67491 13.0758C5.10032 13.7967 4.57158 14.5587 4.14491 15.3921C4.04959 15.5806 3.99993 15.7889 3.99993 16.0002C3.99993 16.2115 4.04959 16.4198 4.14491 16.6083C6.40449 21.0171 10.8778 24 15.9999 24C17.1211 24 18.2028 23.8333 19.2453 23.5641L17.0832 21.8912C16.7261 21.9602 16.3635 21.9966 15.9999 22ZM29.0757 24.4208L24.4694 20.8608C25.8687 19.6816 27.0194 18.2359 27.8548 16.6079C27.9502 16.4194 27.9998 16.2111 27.9998 15.9998C27.9998 15.7885 27.9502 15.5802 27.8548 15.3917C25.5953 10.9829 21.1219 8.00002 15.9999 8.00002C13.8547 8.00262 11.7443 8.54267 9.86156 9.57085L4.56074 5.47378C4.49162 5.41999 4.41257 5.38035 4.32812 5.35712C4.24367 5.33389 4.15548 5.32754 4.06857 5.33841C3.98166 5.34928 3.89774 5.37717 3.82162 5.42049C3.7455 5.46381 3.67865 5.5217 3.62491 5.59086L2.807 6.64377C2.6985 6.78335 2.64988 6.96031 2.67184 7.13573C2.69379 7.31114 2.78453 7.47066 2.92408 7.57919L27.439 26.5262C27.5081 26.58 27.5872 26.6196 27.6716 26.6429C27.7561 26.6661 27.8443 26.6725 27.9312 26.6616C28.0181 26.6507 28.102 26.6228 28.1781 26.5795C28.2543 26.5362 28.3211 26.4783 28.3748 26.4091L29.1932 25.3562C29.3016 25.2166 29.3502 25.0396 29.3281 24.8642C29.3061 24.6888 29.2153 24.5293 29.0757 24.4208ZM21.4207 18.5042L19.7832 17.2383C19.9211 16.8398 19.9942 16.4217 19.9999 16C20.008 15.3826 19.8712 14.7719 19.6005 14.217C19.3298 13.662 18.9327 13.1783 18.4412 12.8047C17.9496 12.431 17.3773 12.1779 16.7702 12.0656C16.163 11.9532 15.538 11.9849 14.9453 12.1579C15.1965 12.4984 15.3325 12.9102 15.3332 13.3333C15.327 13.4741 15.3055 13.6139 15.269 13.75L12.202 11.3796C13.2674 10.4893 14.6114 10.001 15.9999 10C16.7879 9.99958 17.5683 10.1545 18.2965 10.4558C19.0246 10.7572 19.6862 11.1992 20.2435 11.7564C20.8007 12.3136 21.2427 12.9752 21.544 13.7034C21.8454 14.4315 22.0003 15.2119 21.9999 16C21.9999 16.9012 21.7794 17.7412 21.4207 18.5046V18.5042Z" fill="#9EB0EA"/>
</svg>
