<svg width="15" height="10" viewBox="0 0 15 10" fill="none" xmlns="http://www.w3.org/2000/svg">
<path fill-rule="evenodd" clip-rule="evenodd" d="M0 9.29675C0 9.15171 0.0718343 9.01262 0.1997 8.91006C0.327566 8.8075 0.500989 8.74989 0.681818 8.74989H14.3182C14.499 8.74989 14.6724 8.8075 14.8003 8.91006C14.9282 9.01262 15 9.15171 15 9.29675C15 9.44179 14.9282 9.58089 14.8003 9.68345C14.6724 9.78601 14.499 9.84362 14.3182 9.84362H0.681818C0.500989 9.84362 0.327566 9.78601 0.1997 9.68345C0.0718343 9.58089 0 9.44179 0 9.29675ZM0 4.92181C0 4.77677 0.0718343 4.63767 0.1997 4.53512C0.327566 4.43256 0.500989 4.37494 0.681818 4.37494H14.3182C14.499 4.37494 14.6724 4.43256 14.8003 4.53512C14.9282 4.63767 15 4.77677 15 4.92181C15 5.06685 14.9282 5.20595 14.8003 5.30851C14.6724 5.41106 14.499 5.46868 14.3182 5.46868H0.681818C0.500989 5.46868 0.327566 5.41106 0.1997 5.30851C0.0718343 5.20595 0 5.06685 0 4.92181ZM0 0.546868C0 0.401829 0.0718343 0.262732 0.1997 0.160174C0.327566 0.0576164 0.500989 0 0.681818 0H14.3182C14.499 0 14.6724 0.0576164 14.8003 0.160174C14.9282 0.262732 15 0.401829 15 0.546868C15 0.691906 14.9282 0.831004 14.8003 0.933562C14.6724 1.03612 14.499 1.09374 14.3182 1.09374H0.681818C0.500989 1.09374 0.327566 1.03612 0.1997 0.933562C0.0718343 0.831004 0 0.691906 0 0.546868Z" fill="white"/>
</svg>
