<svg width="24" height="12" viewBox="0 0 24 12" fill="none" xmlns="http://www.w3.org/2000/svg">
<path d="M23.725 5.12876C23.7248 5.12848 23.7245 5.12815 23.7242 5.12787L18.8256 0.27193C18.4586 -0.0918458 17.865 -0.090492 17.4997 0.275105C17.1345 0.640655 17.1359 1.23191 17.5028 1.59573L20.7918 4.85594H0.9375C0.419719 4.85594 0 5.27402 0 5.78978C0 6.30553 0.419719 6.72361 0.9375 6.72361H20.7917L17.5029 9.98382C17.1359 10.3476 17.1345 10.9389 17.4998 11.3044C17.865 11.6701 18.4587 11.6714 18.8256 11.3076L23.7242 6.45168C23.7245 6.4514 23.7248 6.45107 23.7251 6.45079C24.0923 6.08576 24.0911 5.49258 23.725 5.12876Z" fill="white"/>
</svg>
