<svg width="163" height="40" viewBox="0 0 163 40" fill="none" xmlns="http://www.w3.org/2000/svg">
<path d="M146.47 5C144.978 5 143.758 6.5 143.758 8.33333C143.758 10.1667 144.978 11.6667 146.47 11.6667C147.962 11.6667 149.183 10.1667 149.183 8.33333C149.183 6.5 147.962 5 146.47 5ZM146.47 28.3333C144.978 28.3333 143.758 29.8333 143.758 31.6667C143.758 33.5 144.978 35 146.47 35C147.962 35 149.183 33.5 149.183 31.6667C149.183 29.8333 147.962 28.3333 146.47 28.3333ZM146.47 16.6667C144.978 16.6667 143.758 18.1667 143.758 20C143.758 21.8333 144.978 23.3333 146.47 23.3333C147.962 23.3333 149.183 21.8333 149.183 20C149.183 18.1667 147.962 16.6667 146.47 16.6667Z" fill="#A0A0A0"/>
</svg>
