<svg width="48" height="46" viewBox="0 0 48 46" fill="none" xmlns="http://www.w3.org/2000/svg">
<path d="M0 0H39.9832C44.4107 0 48 3.58924 48 8.0168V37.4117C48 41.8393 44.4107 45.4285 39.9832 45.4285H0V0Z" fill="#FFA78D"/>
<path opacity="0.5" d="M24.708 13.3614H22.9265C21.2469 13.3614 20.407 13.3614 19.8852 13.8832C19.3635 14.405 19.3635 15.2448 19.3635 16.9244V18.7059V20.042H28.271V18.7059V16.9244C28.271 15.2448 28.271 14.405 27.7492 13.8832C27.2274 13.3614 26.3876 13.3614 24.708 13.3614Z" fill="white"/>
<path fill-rule="evenodd" clip-rule="evenodd" d="M25.0959 16.7312C24.2985 16.2964 23.3348 16.2964 22.5373 16.7312L18.2668 19.0598C17.4082 19.528 16.8739 20.4279 16.8739 21.406V25.8042C16.8739 26.7822 17.4082 27.6821 18.2668 28.1503L22.5373 30.4789C23.3348 30.9138 24.2985 30.9138 25.0959 30.4789L29.3664 28.1503C30.2251 27.6821 30.7594 26.7822 30.7594 25.8042V21.406C30.7594 20.4279 30.2251 19.528 29.3664 19.0598L25.0959 16.7312ZM23.8168 20.9328C23.5638 20.9328 23.3945 21.2364 23.056 21.8436L22.9685 22.0007C22.8723 22.1733 22.8242 22.2595 22.7492 22.3165C22.6742 22.3734 22.5808 22.3945 22.3941 22.4368L22.224 22.4753C21.5667 22.624 21.2381 22.6983 21.1599 22.9498C21.0817 23.2012 21.3057 23.4632 21.7538 23.9872L21.8698 24.1228C21.9971 24.2717 22.0608 24.3461 22.0894 24.4382C22.118 24.5303 22.1084 24.6297 22.0892 24.8283L22.0716 25.0092C22.0039 25.7083 21.97 26.0579 22.1747 26.2133C22.3794 26.3687 22.6871 26.227 23.3026 25.9436L23.4618 25.8703C23.6367 25.7898 23.7241 25.7495 23.8168 25.7495C23.9095 25.7495 23.9969 25.7898 24.1718 25.8703L24.331 25.9436C24.9464 26.227 25.2542 26.3687 25.4589 26.2133C25.6636 26.0579 25.6297 25.7083 25.5619 25.0092L25.5444 24.8283C25.5252 24.6297 25.5155 24.5303 25.5442 24.4382C25.5728 24.3461 25.6365 24.2717 25.7638 24.1228L25.8798 23.9872C26.3279 23.4632 26.5519 23.2012 26.4737 22.9498C26.3955 22.6983 26.0669 22.624 25.4096 22.4753L25.2395 22.4368C25.0528 22.3945 24.9594 22.3734 24.8844 22.3165C24.8094 22.2595 24.7613 22.1733 24.6651 22.0007L24.5775 21.8436C24.2391 21.2364 24.0698 20.9328 23.8168 20.9328Z" fill="white"/>
</svg>
