<svg width="15" height="15" viewBox="0 0 15 15" fill="none" xmlns="http://www.w3.org/2000/svg">
<path d="M3.94838 6.30855C3.94838 6.10736 4.11021 5.94427 4.30983 5.94427H6.23753C6.43715 5.94427 6.59898 6.10736 6.59898 6.30855C6.59898 6.50974 6.43715 6.67284 6.23753 6.67284H4.30983C4.11021 6.67284 3.94838 6.50974 3.94838 6.30855Z" fill="#0EAD69"/>
<path fill-rule="evenodd" clip-rule="evenodd" d="M12.0981 6.50285C12.067 6.50094 12.0331 6.50095 11.998 6.50097L11.9892 6.50097H10.6114C9.47569 6.50097 8.50393 7.369 8.50393 8.50096C8.50393 9.63293 9.47569 10.501 10.6114 10.501H11.9892L11.998 10.501C12.0331 10.501 12.067 10.501 12.0981 10.4991C12.5594 10.4708 12.9674 10.1203 13.0017 9.63067C13.004 9.59857 13.0039 9.56396 13.0039 9.53189L13.0039 9.52318V7.47874L13.0039 7.47004C13.0039 7.43796 13.004 7.40336 13.0017 7.37125C12.9674 6.88166 12.5594 6.53113 12.0981 6.50285ZM10.4892 9.03429C10.7816 9.03429 11.0186 8.79551 11.0186 8.50096C11.0186 8.20641 10.7816 7.96763 10.4892 7.96763C10.1968 7.96763 9.95981 8.20641 9.95981 8.50096C9.95981 8.79551 10.1968 9.03429 10.4892 9.03429Z" fill="#FFEDDE"/>
<path d="M12.0676 6.50219C12.0676 5.91188 12.0461 5.27866 11.6688 4.82471C11.6324 4.78089 11.5936 4.73834 11.5523 4.69705C11.1781 4.32286 10.7036 4.15681 10.1174 4.07799C9.54782 4.00141 8.82001 4.00142 7.90114 4.00142H6.84471C5.92584 4.00142 5.19802 4.00141 4.62841 4.07799C4.0422 4.15681 3.56773 4.32287 3.19355 4.69705C2.81937 5.07123 2.65331 5.5457 2.5745 6.13191C2.49792 6.70152 2.49792 7.42933 2.49793 8.3482V8.40463C2.49792 9.32351 2.49792 10.0513 2.5745 10.6209C2.65331 11.2071 2.81937 11.6816 3.19355 12.0558C3.56773 12.43 4.0422 12.596 4.62841 12.6749C5.19802 12.7514 5.92582 12.7514 6.84469 12.7514H7.90112C8.81999 12.7514 9.54782 12.7514 10.1174 12.6749C10.7036 12.596 11.1781 12.43 11.5523 12.0558C11.6545 11.9535 11.7414 11.8436 11.8152 11.7257C12.0404 11.366 12.0676 10.9251 12.0676 10.5007C12.0435 10.5014 12.0181 10.5014 11.992 10.5014L10.6054 10.5014C9.46968 10.5014 8.49792 9.63339 8.49792 8.50142C8.49792 7.36946 9.46968 6.50143 10.6054 6.50143L11.992 6.50143C12.0181 6.50142 12.0435 6.50141 12.0676 6.50219Z" fill="#0EAD69"/>
<path d="M6.55389 2.78598L5.50317 3.49619L4.63653 4.07611C5.20571 3.99991 5.93263 3.99992 6.84995 3.99992H7.90638C8.82525 3.99992 9.55306 3.99991 10.1227 4.07649C10.2372 4.0919 10.3476 4.11063 10.4537 4.13361L9.50316 3.49992L8.44691 2.78598C7.88263 2.40457 7.11817 2.40457 6.55389 2.78598Z" fill="#FFEDDE"/>
</svg>
