<svg width="22" height="29" viewBox="0 0 22 29" fill="none" xmlns="http://www.w3.org/2000/svg">
<path d="M2.75 1.39774C2.75 2.16969 2.13439 2.79548 1.375 2.79548C0.615608 2.79548 0 2.16969 0 1.39774C0 0.62579 0.615608 0 1.375 0C2.13439 0 2.75 0.62579 2.75 1.39774Z" fill="white"/>
<path d="M9.16667 1.39774C9.16667 2.16969 8.55106 2.79548 7.79167 2.79548C7.03228 2.79548 6.41667 2.16969 6.41667 1.39774C6.41667 0.62579 7.03228 0 7.79167 0C8.55106 0 9.16667 0.62579 9.16667 1.39774Z" fill="white"/>
<path d="M15.5833 1.39774C15.5833 2.16969 14.9677 2.79548 14.2083 2.79548C13.4489 2.79548 12.8333 2.16969 12.8333 1.39774C12.8333 0.62579 13.4489 0 14.2083 0C14.9677 0 15.5833 0.62579 15.5833 1.39774Z" fill="white"/>
<path d="M22 1.39774C22 2.16969 21.3844 2.79548 20.625 2.79548C19.8656 2.79548 19.25 2.16969 19.25 1.39774C19.25 0.62579 19.8656 0 20.625 0C21.3844 0 22 0.62579 22 1.39774Z" fill="white"/>
<path d="M2.75 7.92053C2.75 8.69248 2.13439 9.31827 1.375 9.31827C0.615608 9.31827 0 8.69248 0 7.92053C0 7.14858 0.615608 6.52279 1.375 6.52279C2.13439 6.52279 2.75 7.14858 2.75 7.92053Z" fill="white"/>
<path d="M9.16667 7.92053C9.16667 8.69248 8.55106 9.31827 7.79167 9.31827C7.03228 9.31827 6.41667 8.69248 6.41667 7.92053C6.41667 7.14858 7.03228 6.52279 7.79167 6.52279C8.55106 6.52279 9.16667 7.14858 9.16667 7.92053Z" fill="white"/>
<path d="M15.5833 7.92053C15.5833 8.69248 14.9677 9.31827 14.2083 9.31827C13.4489 9.31827 12.8333 8.69248 12.8333 7.92053C12.8333 7.14858 13.4489 6.52279 14.2083 6.52279C14.9677 6.52279 15.5833 7.14858 15.5833 7.92053Z" fill="white"/>
<path d="M22 7.92053C22 8.69248 21.3844 9.31827 20.625 9.31827C19.8656 9.31827 19.25 8.69248 19.25 7.92053C19.25 7.14858 19.8656 6.52279 20.625 6.52279C21.3844 6.52279 22 7.14858 22 7.92053Z" fill="white"/>
<path d="M2.75 14.4433C2.75 15.2153 2.13439 15.8411 1.375 15.8411C0.615608 15.8411 0 15.2153 0 14.4433C0 13.6714 0.615608 13.0456 1.375 13.0456C2.13439 13.0456 2.75 13.6714 2.75 14.4433Z" fill="white"/>
<path d="M9.16667 14.4433C9.16667 15.2153 8.55106 15.8411 7.79167 15.8411C7.03228 15.8411 6.41667 15.2153 6.41667 14.4433C6.41667 13.6714 7.03228 13.0456 7.79167 13.0456C8.55106 13.0456 9.16667 13.6714 9.16667 14.4433Z" fill="white"/>
<path d="M15.5833 14.4433C15.5833 15.2153 14.9677 15.8411 14.2083 15.8411C13.4489 15.8411 12.8333 15.2153 12.8333 14.4433C12.8333 13.6714 13.4489 13.0456 14.2083 13.0456C14.9677 13.0456 15.5833 13.6714 15.5833 14.4433Z" fill="white"/>
<path d="M22 14.4433C22 15.2153 21.3844 15.8411 20.625 15.8411C19.8656 15.8411 19.25 15.2153 19.25 14.4433C19.25 13.6714 19.8656 13.0456 20.625 13.0456C21.3844 13.0456 22 13.6714 22 14.4433Z" fill="white"/>
<path d="M2.75 20.9661C2.75 21.7381 2.13439 22.3639 1.375 22.3639C0.615608 22.3639 0 21.7381 0 20.9661C0 20.1942 0.615608 19.5684 1.375 19.5684C2.13439 19.5684 2.75 20.1942 2.75 20.9661Z" fill="white"/>
<path d="M9.16667 20.9661C9.16667 21.7381 8.55106 22.3639 7.79167 22.3639C7.03228 22.3639 6.41667 21.7381 6.41667 20.9661C6.41667 20.1942 7.03228 19.5684 7.79167 19.5684C8.55106 19.5684 9.16667 20.1942 9.16667 20.9661Z" fill="white"/>
<path d="M15.5833 20.9661C15.5833 21.7381 14.9677 22.3639 14.2083 22.3639C13.4489 22.3639 12.8333 21.7381 12.8333 20.9661C12.8333 20.1942 13.4489 19.5684 14.2083 19.5684C14.9677 19.5684 15.5833 20.1942 15.5833 20.9661Z" fill="white"/>
<path d="M22 20.9661C22 21.7381 21.3844 22.3639 20.625 22.3639C19.8656 22.3639 19.25 21.7381 19.25 20.9661C19.25 20.1942 19.8656 19.5684 20.625 19.5684C21.3844 19.5684 22 20.1942 22 20.9661Z" fill="white"/>
<path d="M2.75 27.4889C2.75 28.2609 2.13439 28.8866 1.375 28.8866C0.615608 28.8866 0 28.2609 0 27.4889C0 26.717 0.615608 26.0912 1.375 26.0912C2.13439 26.0912 2.75 26.717 2.75 27.4889Z" fill="white"/>
<path d="M9.16667 27.4889C9.16667 28.2609 8.55106 28.8866 7.79167 28.8866C7.03228 28.8866 6.41667 28.2609 6.41667 27.4889C6.41667 26.717 7.03228 26.0912 7.79167 26.0912C8.55106 26.0912 9.16667 26.717 9.16667 27.4889Z" fill="white"/>
<path d="M15.5833 27.4889C15.5833 28.2609 14.9677 28.8866 14.2083 28.8866C13.4489 28.8866 12.8333 28.2609 12.8333 27.4889C12.8333 26.717 13.4489 26.0912 14.2083 26.0912C14.9677 26.0912 15.5833 26.717 15.5833 27.4889Z" fill="white"/>
<path d="M22 27.4889C22 28.2609 21.3844 28.8866 20.625 28.8866C19.8656 28.8866 19.25 28.2609 19.25 27.4889C19.25 26.717 19.8656 26.0912 20.625 26.0912C21.3844 26.0912 22 26.717 22 27.4889Z" fill="white"/>
</svg>
