<svg width="46" height="39" viewBox="0 0 46 39" fill="none" xmlns="http://www.w3.org/2000/svg">
<path d="M39.0998 1.95001H6.8998C4.3698 1.95001 2.2998 3.70501 2.2998 5.85001V33.15C2.2998 35.297 4.3698 37.05 6.8998 37.05H22.9998V23.4H18.3998V18.5738H22.9998V14.5763C22.9998 10.3565 25.7874 7.39246 31.6616 7.39246L35.8085 7.39636V12.4761H33.0554C30.7692 12.4761 29.8998 13.9308 29.8998 15.2802V18.5757H35.8062L34.4998 23.4H29.8998V37.05H39.0998C41.6298 37.05 43.6998 35.297 43.6998 33.15V5.85001C43.6998 3.70501 41.6298 1.95001 39.0998 1.95001Z" fill="#55ACEE"/>
</svg>
