<svg width="22" height="29" viewBox="0 0 22 29" fill="none" xmlns="http://www.w3.org/2000/svg">
<path d="M2.66503 1.40322C2.66503 2.1782 2.06845 2.80644 1.33252 2.80644C0.596588 2.80644 0 2.1782 0 1.40322C0 0.628244 0.596588 0 1.33252 0C2.06845 0 2.66503 0.628244 2.66503 1.40322Z" fill="white"/>
<path d="M8.88345 1.40322C8.88345 2.1782 8.28686 2.80644 7.55093 2.80644C6.815 2.80644 6.21841 2.1782 6.21841 1.40322C6.21841 0.628244 6.815 0 7.55093 0C8.28686 0 8.88345 0.628244 8.88345 1.40322Z" fill="white"/>
<path d="M15.1019 1.40322C15.1019 2.1782 14.5053 2.80644 13.7693 2.80644C13.0334 2.80644 12.4368 2.1782 12.4368 1.40322C12.4368 0.628244 13.0334 0 13.7693 0C14.5053 0 15.1019 0.628244 15.1019 1.40322Z" fill="white"/>
<path d="M21.3203 1.40322C21.3203 2.1782 20.7237 2.80644 19.9878 2.80644C19.2518 2.80644 18.6552 2.1782 18.6552 1.40322C18.6552 0.628244 19.2518 0 19.9878 0C20.7237 0 21.3203 0.628244 21.3203 1.40322Z" fill="white"/>
<path d="M2.66503 7.95159C2.66503 8.72657 2.06845 9.35481 1.33252 9.35481C0.596588 9.35481 0 8.72657 0 7.95159C0 7.17661 0.596588 6.54837 1.33252 6.54837C2.06845 6.54837 2.66503 7.17661 2.66503 7.95159Z" fill="white"/>
<path d="M8.88345 7.95159C8.88345 8.72657 8.28686 9.35481 7.55093 9.35481C6.815 9.35481 6.21841 8.72657 6.21841 7.95159C6.21841 7.17661 6.815 6.54837 7.55093 6.54837C8.28686 6.54837 8.88345 7.17661 8.88345 7.95159Z" fill="white"/>
<path d="M15.1019 7.95159C15.1019 8.72657 14.5053 9.35481 13.7693 9.35481C13.0334 9.35481 12.4368 8.72657 12.4368 7.95159C12.4368 7.17661 13.0334 6.54837 13.7693 6.54837C14.5053 6.54837 15.1019 7.17661 15.1019 7.95159Z" fill="white"/>
<path d="M21.3203 7.95159C21.3203 8.72657 20.7237 9.35481 19.9878 9.35481C19.2518 9.35481 18.6552 8.72657 18.6552 7.95159C18.6552 7.17661 19.2518 6.54837 19.9878 6.54837C20.7237 6.54837 21.3203 7.17661 21.3203 7.95159Z" fill="white"/>
<path d="M2.66503 14.5C2.66503 15.2749 2.06845 15.9032 1.33252 15.9032C0.596588 15.9032 0 15.2749 0 14.5C0 13.725 0.596588 13.0967 1.33252 13.0967C2.06845 13.0967 2.66503 13.725 2.66503 14.5Z" fill="white"/>
<path d="M8.88345 14.5C8.88345 15.2749 8.28686 15.9032 7.55093 15.9032C6.815 15.9032 6.21841 15.2749 6.21841 14.5C6.21841 13.725 6.815 13.0967 7.55093 13.0967C8.28686 13.0967 8.88345 13.725 8.88345 14.5Z" fill="white"/>
<path d="M15.1019 14.5C15.1019 15.2749 14.5053 15.9032 13.7693 15.9032C13.0334 15.9032 12.4368 15.2749 12.4368 14.5C12.4368 13.725 13.0334 13.0967 13.7693 13.0967C14.5053 13.0967 15.1019 13.725 15.1019 14.5Z" fill="white"/>
<path d="M21.3203 14.5C21.3203 15.2749 20.7237 15.9032 19.9878 15.9032C19.2518 15.9032 18.6552 15.2749 18.6552 14.5C18.6552 13.725 19.2518 13.0967 19.9878 13.0967C20.7237 13.0967 21.3203 13.725 21.3203 14.5Z" fill="white"/>
<path d="M2.66503 21.0483C2.66503 21.8233 2.06845 22.4516 1.33252 22.4516C0.596588 22.4516 0 21.8233 0 21.0483C0 20.2734 0.596588 19.6451 1.33252 19.6451C2.06845 19.6451 2.66503 20.2734 2.66503 21.0483Z" fill="white"/>
<path d="M8.88345 21.0483C8.88345 21.8233 8.28686 22.4516 7.55093 22.4516C6.815 22.4516 6.21841 21.8233 6.21841 21.0483C6.21841 20.2734 6.815 19.6451 7.55093 19.6451C8.28686 19.6451 8.88345 20.2734 8.88345 21.0483Z" fill="white"/>
<path d="M15.1019 21.0483C15.1019 21.8233 14.5053 22.4516 13.7693 22.4516C13.0334 22.4516 12.4368 21.8233 12.4368 21.0483C12.4368 20.2734 13.0334 19.6451 13.7693 19.6451C14.5053 19.6451 15.1019 20.2734 15.1019 21.0483Z" fill="white"/>
<path d="M21.3203 21.0483C21.3203 21.8233 20.7237 22.4516 19.9878 22.4516C19.2518 22.4516 18.6552 21.8233 18.6552 21.0483C18.6552 20.2734 19.2518 19.6451 19.9878 19.6451C20.7237 19.6451 21.3203 20.2734 21.3203 21.0483Z" fill="white"/>
<path d="M2.66503 27.5967C2.66503 28.3717 2.06845 28.9999 1.33252 28.9999C0.596588 28.9999 0 28.3717 0 27.5967C0 26.8217 0.596588 26.1935 1.33252 26.1935C2.06845 26.1935 2.66503 26.8217 2.66503 27.5967Z" fill="white"/>
<path d="M8.88345 27.5967C8.88345 28.3717 8.28686 28.9999 7.55093 28.9999C6.815 28.9999 6.21841 28.3717 6.21841 27.5967C6.21841 26.8217 6.815 26.1935 7.55093 26.1935C8.28686 26.1935 8.88345 26.8217 8.88345 27.5967Z" fill="white"/>
<path d="M15.1019 27.5967C15.1019 28.3717 14.5053 28.9999 13.7693 28.9999C13.0334 28.9999 12.4368 28.3717 12.4368 27.5967C12.4368 26.8217 13.0334 26.1935 13.7693 26.1935C14.5053 26.1935 15.1019 26.8217 15.1019 27.5967Z" fill="white"/>
<path d="M21.3203 27.5967C21.3203 28.3717 20.7237 28.9999 19.9878 28.9999C19.2518 28.9999 18.6552 28.3717 18.6552 27.5967C18.6552 26.8217 19.2518 26.1935 19.9878 26.1935C20.7237 26.1935 21.3203 26.8217 21.3203 27.5967Z" fill="white"/>
</svg>
