<svg width="18" height="18" viewBox="0 0 18 18" fill="none" xmlns="http://www.w3.org/2000/svg">
<path d="M6.43783 3.06753C7.57781 1.02251 8.1478 0 8.99997 0C9.85215 0 10.4221 1.02251 11.5621 3.06753L11.857 3.5966C12.181 4.17773 12.343 4.46829 12.5955 4.66001C12.8481 4.85173 13.1626 4.9229 13.7917 5.06523L14.3644 5.19481C16.5781 5.69568 17.6849 5.94612 17.9483 6.79294C18.2116 7.63976 17.457 8.52214 15.9479 10.2869L15.5574 10.7435C15.1286 11.245 14.9141 11.4957 14.8177 11.8059C14.7212 12.1161 14.7536 12.4507 14.8185 13.1198L14.8775 13.7289C15.1057 16.0835 15.2197 17.2608 14.5303 17.7841C13.8409 18.3075 12.8046 17.8303 10.7319 16.876L10.1956 16.6291C9.60664 16.3579 9.31214 16.2223 8.99997 16.2223C8.68781 16.2223 8.39331 16.3579 7.80431 16.6291L7.26809 16.876C5.19539 17.8303 4.15905 18.3075 3.46962 17.7841C2.7802 17.2608 2.89428 16.0835 3.12245 13.7289L3.18148 13.1198C3.24631 12.4507 3.27873 12.1161 3.18227 11.8059C3.0858 11.4957 2.87137 11.245 2.44252 10.7435L2.05208 10.2869C0.542922 8.52214 -0.211657 7.63976 0.0516787 6.79294C0.315015 5.94612 1.42187 5.69568 3.63557 5.19481L4.20829 5.06523C4.83735 4.9229 5.15188 4.85173 5.40443 4.66001C5.65698 4.46829 5.81896 4.17773 6.1429 3.5966L6.43783 3.06753Z" fill="white"/>
</svg>
