<svg width="48" height="48" viewBox="0 0 48 48" fill="none" xmlns="http://www.w3.org/2000/svg">
<path opacity="0.5" d="M21.3299 11.6033C23.4347 9.08481 24.4871 7.82558 25.6969 8.01953C26.9067 8.21349 27.4726 9.73217 28.6046 12.7695L28.8974 13.5553C29.2191 14.4185 29.3799 14.85 29.6929 15.1679C30.0058 15.4858 30.4354 15.6541 31.2946 15.9906L32.0768 16.297C35.1004 17.4812 36.6121 18.0733 36.7846 19.2835C36.957 20.4937 35.6758 21.5206 33.1136 23.5743L32.4507 24.1057C31.7226 24.6893 31.3585 24.9811 31.1478 25.3805C30.9371 25.7799 30.9035 26.2417 30.8364 27.1654L30.7753 28.0063C30.5391 31.2566 30.4211 32.8818 29.3178 33.4358C28.2146 33.9898 26.8569 33.1058 24.1414 31.3377L23.4388 30.8802C22.6672 30.3778 22.2813 30.1266 21.8382 30.0555C21.395 29.9845 20.9447 30.1017 20.044 30.336L19.224 30.5493C16.0545 31.3739 14.4697 31.7862 13.6155 30.9184C12.7612 30.0506 13.2032 28.4773 14.0872 25.3309L14.3159 24.5168C14.5671 23.6227 14.6927 23.1756 14.6296 22.7323C14.5664 22.289 14.3216 21.8996 13.8321 21.1207L13.3864 20.4117C11.6637 17.671 10.8023 16.3006 11.3776 15.2103C11.9529 14.1199 13.5838 14.0316 16.8456 13.8551L17.6895 13.8094C18.6164 13.7593 19.0799 13.7342 19.484 13.5312C19.8882 13.3283 20.1872 12.9705 20.7853 12.2548L21.3299 11.6033Z" fill="#2684FC"/>
<path d="M29.2024 21.9024C27.6238 20.0136 26.8345 19.0692 25.9271 19.2146C25.0198 19.3601 24.5953 20.4991 23.7464 22.7771L23.5267 23.3665C23.2855 24.0138 23.1649 24.3375 22.9302 24.5759C22.6955 24.8143 22.3733 24.9405 21.7289 25.1929L21.1422 25.4227C18.8745 26.3108 17.7407 26.7549 17.6114 27.6626C17.4821 28.5703 18.4429 29.3404 20.3646 30.8807L20.8618 31.2792C21.4079 31.7169 21.6809 31.9358 21.839 32.2353C21.997 32.5349 22.0222 32.8813 22.0725 33.574L22.1183 34.2047C22.2954 36.6424 22.384 37.8613 23.2114 38.2768C24.0388 38.6923 25.0572 38.0293 27.0938 36.7032L27.6207 36.3602C28.1994 35.9833 28.4888 35.7949 28.8212 35.7416C29.1536 35.6883 29.4913 35.7762 30.1668 35.952L30.7818 36.112C33.1589 36.7304 34.3475 37.0396 34.9882 36.3888C35.6289 35.7379 35.2974 34.558 34.6344 32.1981L34.4629 31.5876C34.2745 30.917 34.1803 30.5817 34.2276 30.2492C34.275 29.9167 34.4586 29.6246 34.8257 29.0405L35.16 28.5087C36.452 26.4532 37.098 25.4255 36.6666 24.6077C36.2351 23.7899 35.0119 23.7237 32.5656 23.5913L31.9327 23.557C31.2375 23.5194 30.8899 23.5006 30.5868 23.3484C30.2837 23.1962 30.0594 22.9278 29.6108 22.3911L29.2024 21.9024Z" fill="#413B89"/>
</svg>
