<svg width="90" height="90" viewBox="0 0 90 90" fill="none" xmlns="http://www.w3.org/2000/svg">
<path fill-rule="evenodd" clip-rule="evenodd" d="M90 34.804V46.4516H87.0968V34.804C87.0968 32.8661 85.85 31.1891 83.9944 30.6334L74.6461 27.8287C73.8012 28.9259 72.1667 30.4839 69.6774 30.4839C67.1881 30.4839 65.5536 28.9259 64.7088 27.8301L58.4303 29.7148C60.8614 31.0793 62.4194 33.66 62.4194 36.5271V37.9028C64.2658 36.016 66.8352 34.8401 69.6774 34.8401C75.2804 34.8401 79.8387 39.3984 79.8387 45.0014V49.3563C79.8387 52.7996 78.1128 55.8439 75.4839 57.6825V59.8875L84.8279 62.6908C87.9211 63.6186 90 66.4127 90 69.6427V82.7419H72.5806C71.7811 82.7419 71.129 83.394 71.129 84.1936V90H18.871V84.1936C18.871 83.394 18.2189 82.7419 17.4194 82.7419H0V69.6427C0 66.4127 2.0789 63.6186 5.17208 62.6894L14.5161 59.8861V57.6811C11.8872 55.8439 10.1613 52.7996 10.1613 49.3548V45C10.1613 39.397 14.7196 34.8387 20.3226 34.8387C23.2357 34.8387 25.8604 36.0784 27.7139 38.0481C28.0959 34.8834 29.3548 31.9908 31.2444 29.6142L25.2912 27.8287C24.4464 28.9259 22.8119 30.4839 20.3226 30.4839C17.8333 30.4839 16.1988 28.9259 15.3539 27.8287L6.00704 30.6334C4.15 31.1891 2.90323 32.8661 2.90323 34.804V46.4516H0V34.804C0 31.574 2.0789 28.7799 5.17208 27.8507L14.5161 25.0474V22.8423C11.8872 21.0051 10.1613 17.9609 10.1613 14.5161V10.1613C10.1613 4.55826 14.7196 0 20.3226 0C25.9256 0 30.4839 4.55826 30.4839 10.1613V14.5175C30.4839 17.9609 28.758 21.0051 26.129 22.8438V25.0488L33.5118 27.2645C36.4555 24.7511 40.2645 23.2258 44.428 23.2258C48.6085 23.2258 52.5458 24.7547 55.6362 27.5183L63.871 25.0474V22.8423C61.242 21.0051 59.5161 17.9609 59.5161 14.5161V10.1613C59.5161 4.55826 64.0744 0 69.6774 0C75.2804 0 79.8387 4.55826 79.8387 10.1613V14.5175C79.8387 17.9609 78.1128 21.0051 75.4839 22.8438V25.0488L84.8279 27.8521C87.9211 28.7799 90 31.574 90 34.804ZM27.5806 10.1613C27.5806 6.15943 24.3244 2.90323 20.3226 2.90323C16.3207 2.90323 13.0645 6.15943 13.0645 10.1613H13.9151C14.8372 10.1613 15.7416 9.78705 16.393 9.13495L17.4194 8.10862L18.4457 9.13495C19.0971 9.78705 20.0015 10.1613 20.9236 10.1613H27.5806ZM13.0645 14.5161V13.0645H13.9151C15.1796 13.0645 16.3873 12.7016 17.4194 12.024C18.4514 12.7016 19.6591 13.0645 20.9236 13.0645H27.5806V14.5161C27.5806 18.518 24.3244 21.7742 20.3226 21.7742C16.3207 21.7742 13.0645 18.518 13.0645 14.5161ZM17.4194 25.73C17.7794 26.2843 18.7795 27.5806 20.3226 27.5806C21.8656 27.5806 22.8657 26.2857 23.2258 25.7286V24.2493C22.3058 24.525 21.3312 24.6774 20.3226 24.6774C19.314 24.6774 18.3394 24.525 17.4194 24.2507V25.73ZM60.2242 53.059C60.9635 54.9366 62.2393 56.542 63.871 57.6825V59.8875L54.5283 62.6908C54.2207 62.7823 53.9216 62.9013 53.6296 63.0332L52.2581 62.717V59.8571C53.8096 58.6103 55.0323 56.973 55.7829 55.0961C57.455 54.9494 59.0228 54.2377 60.2242 53.059ZM49.3548 61.5645C48.0095 62.1117 46.5402 62.4194 45 62.4194C43.4598 62.4194 41.9905 62.1117 40.6452 61.5645V63.1452L45 66.4113L49.3548 63.1452V61.5645ZM38.8625 65.4374L42.4016 68.0926L38.7612 70.2771L37.8405 65.6741L38.8625 65.4374ZM47.7331 87.0968L46.604 76.9355H43.396L42.2669 87.0968H47.7331ZM46.8563 74.0323H43.1422L42.3087 71.5323L45 69.9184L47.6899 71.5323L46.8563 74.0323ZM51.1375 65.4374L47.5984 68.0926L51.2388 70.2756L52.1595 65.6727L51.1375 65.4374ZM58.3842 50.8327C57.8816 51.3841 57.243 51.7704 56.5505 52.0057C56.5909 51.6109 56.6129 51.2112 56.6129 50.8064V43.8603C58.1751 44.4528 59.3375 45.8272 59.4942 47.4694C59.6132 48.719 59.2199 49.9119 58.3842 50.8327ZM45 59.5161C49.8035 59.5161 53.7097 55.61 53.7097 50.8064V43.5484H51.3607L50.2125 41.2505C47.4602 42.7588 44.3819 43.5484 41.2186 43.5484H36.2903V50.8064C36.2903 55.61 40.1965 59.5161 45 59.5161ZM33.4495 52.0057C32.757 51.7704 32.1184 51.3841 31.6158 50.8327C30.7801 49.9134 30.3868 48.7191 30.5058 47.4709C30.6625 45.8286 31.8249 44.4528 33.3871 43.8617V50.8065C33.3871 51.2112 33.4091 51.6109 33.4495 52.0057ZM37.7419 59.8571C36.189 58.6103 34.9663 56.973 34.2171 55.0961C32.545 54.9494 30.9772 54.2377 29.7758 53.059C29.0365 54.9366 27.7593 56.542 26.129 57.6825V59.8875L35.4731 62.6908C35.7793 62.7837 36.077 62.9013 36.3704 63.0332L37.7419 62.717V59.8571ZM20.3226 37.7419C24.3244 37.7419 27.5806 40.9981 27.5806 45H26.7301C25.8079 45 24.9035 44.6258 24.2521 43.9737L23.2258 42.9473L22.1995 43.9737C21.5481 44.6258 20.6437 45 19.7215 45H13.0645C13.0645 40.9981 16.3207 37.7419 20.3226 37.7419ZM13.0645 47.9032V49.3548C13.0645 53.3567 16.3207 56.6129 20.3226 56.6129C24.3244 56.6129 27.5806 53.3567 27.5806 49.3548V47.9032H26.7301C25.4656 47.9032 24.2578 47.5403 23.2258 46.8627C22.1938 47.5403 20.986 47.9032 19.7215 47.9032H13.0645ZM20.3226 59.5161C21.3312 59.5161 22.3058 59.3637 23.2258 59.088V60.5673C22.8657 61.1244 21.8656 62.4194 20.3226 62.4194C18.7795 62.4194 17.7794 61.123 17.4194 60.5687V59.0894C18.3394 59.3637 19.314 59.5161 20.3226 59.5161ZM11.6129 79.8387H17.4194C19.82 79.8387 21.7742 81.7929 21.7742 84.1936V87.0968H29.0323V75.4839H31.9355V87.0968H39.3459L40.6175 75.6405L39.7585 73.0626L36.7213 74.8842L35.0102 66.3255L27.4006 68.0819C24.0884 68.8474 21.7742 71.7549 21.7742 75.1543V76.9355H18.871V75.1543C18.871 70.3961 22.1095 66.3241 26.7471 65.2531L30.7957 64.3196L25.2912 62.6674C24.4464 63.7646 22.8119 65.3226 20.3226 65.3226C17.8333 65.3226 16.1988 63.7646 15.3539 62.6674L6.00704 65.4721C4.15 66.0278 2.90323 67.7048 2.90323 69.6427V79.8387H8.70968V69.6774H11.6129V79.8387ZM83.993 65.4721C85.85 66.0278 87.0968 67.7048 87.0968 69.6427V79.8387H81.2903V69.6774H78.3871V79.8387H72.5806C70.18 79.8387 68.2258 81.7929 68.2258 84.1936V87.0968H60.9677V75.4839H58.0645V87.0968H50.6541L49.3811 75.6405L50.2401 73.0626L53.2773 74.8842L54.9883 66.3255L62.5994 68.0819C65.9116 68.8474 68.2258 71.7549 68.2258 75.1543V76.9355H71.129V75.1543C71.129 70.3961 67.8905 66.3241 63.2529 65.2531L59.2043 64.3196L64.7088 62.6674C65.5536 63.7646 67.1881 65.3226 69.6774 65.3226C72.1667 65.3226 73.8012 63.7646 74.6461 62.6674L83.993 65.4721ZM69.6774 62.4194C71.2205 62.4194 72.2206 61.1244 72.5806 60.5687V59.088C71.6606 59.3637 70.686 59.5161 69.6774 59.5161C68.6688 59.5161 67.6942 59.3637 66.7742 59.088V60.5687C67.13 61.1187 68.1315 62.4194 69.6774 62.4194ZM69.6774 56.6129C65.6756 56.6129 62.4194 53.3567 62.4194 49.3548V47.9032H63.2699C64.5344 47.9032 65.7422 47.5403 66.7742 46.8627C67.8062 47.5403 69.014 47.9032 70.2785 47.9032H76.9355V49.3548C76.9355 53.3567 73.6793 56.6129 69.6774 56.6129ZM76.9355 45C76.9355 40.9981 73.6793 37.7419 69.6774 37.7419C65.6756 37.7419 62.4194 40.9981 62.4194 45H63.2699C64.192 45 65.0965 44.6258 65.7479 43.9737L66.7742 42.9473L67.8005 43.9737C68.4519 44.6258 69.3563 45 70.2785 45H76.9355ZM59.5161 42.2201C58.2318 41.2476 56.6363 40.6452 54.9118 40.6452H53.1554L51.3699 37.0742L50.002 37.9858C47.3908 39.7266 44.3543 40.6452 41.2186 40.6452H35.0882C33.3637 40.6452 31.7682 41.2476 30.4839 42.2201V40.0732C30.4839 32.3856 36.7404 26.129 44.428 26.129C48.1527 26.129 51.6556 27.5792 54.2888 30.2124L55.829 31.7526L56.1543 31.8618C58.1645 32.5323 59.5161 34.4063 59.5161 36.5256V42.2201ZM76.9355 10.1613C76.9355 6.15943 73.6793 2.90323 69.6774 2.90323C65.6756 2.90323 62.4194 6.15943 62.4194 10.1613H69.0764C69.9985 10.1613 70.9029 9.78705 71.5543 9.13495L72.5806 8.10862L73.607 9.13495C74.2584 9.78705 75.1628 10.1613 76.0849 10.1613H76.9355ZM62.4194 14.5161V13.0645H69.0764C70.3409 13.0645 71.5486 12.7016 72.5806 12.024C73.6126 12.7016 74.8204 13.0645 76.0849 13.0645H76.9355V14.5161C76.9355 18.518 73.6793 21.7742 69.6774 21.7742C65.6756 21.7742 62.4194 18.518 62.4194 14.5161ZM66.7742 25.73C67.13 26.28 68.1315 27.5806 69.6774 27.5806C71.2205 27.5806 72.2206 26.2857 72.5806 25.7286V24.2493C71.6606 24.525 70.686 24.6774 69.6774 24.6774C68.6688 24.6774 67.6942 24.525 66.7742 24.2493V25.73Z" fill="white"/>
<path d="M33 0H36V3H33V0Z" fill="white"/>
<path d="M33 6H36V22H33V6Z" fill="white"/>
<path d="M54 0H57V3H54V0Z" fill="white"/>
<path d="M54 6H57V22H54V6Z" fill="white"/>
<path d="M39 6H42V16H39V6Z" fill="white"/>
<path d="M39 19H42V22H39V19Z" fill="white"/>
<path d="M48 6H51V16H48V6Z" fill="white"/>
<path d="M48 19H51V22H48V19Z" fill="white"/>
</svg>
