<svg width="28" height="31" viewBox="0 0 28 31" fill="none" xmlns="http://www.w3.org/2000/svg">
<path d="M14 2.58337C11.7518 2.58344 9.55158 3.30265 7.66391 4.65448C5.77623 6.00632 4.28154 7.9332 3.35965 10.2033C2.43775 12.4735 2.12792 14.9901 2.46742 17.4506C2.80692 19.9111 3.7813 22.2106 5.27333 24.0724C5.38236 24.2082 5.51603 24.3171 5.66561 24.3918C5.81519 24.4666 5.97733 24.5056 6.14144 24.5063C16.1002 24.5507 11.63 24.5412 21.83 24.5378C21.994 24.538 22.1563 24.4997 22.3061 24.4256C22.4559 24.3515 22.5899 24.2431 22.6992 24.1077C24.1999 22.2488 25.1826 19.9489 25.5287 17.4854C25.8748 15.0219 25.5696 12.5001 24.6498 10.2244C23.7301 7.9487 22.2351 6.01632 20.3454 4.66047C18.4556 3.30462 16.2519 2.58324 14 2.58337ZM19.3559 12.6669L17.3166 14.3202C17.4333 14.7004 17.4952 15.0985 17.5 15.5C17.5032 16.3666 17.2451 17.2095 16.7666 17.8952C16.2881 18.5809 15.6165 19.0702 14.8583 19.2854C14.1001 19.5006 13.2988 19.4295 12.5813 19.0833C11.8638 18.7371 11.2712 18.1356 10.8974 17.3742C10.5237 16.6129 10.3902 15.7352 10.5181 14.8803C10.646 14.0254 11.028 13.2422 11.6035 12.6549C12.1791 12.0676 12.9152 11.7099 13.6952 11.6383C14.4752 11.5668 15.2545 11.7855 15.9095 12.2599L17.9774 10.5831C18.2273 10.3873 18.5366 10.3082 18.8387 10.3627C19.1409 10.4172 19.4115 10.6009 19.5924 10.8743C19.7732 11.1477 19.8498 11.4889 19.8056 11.8242C19.7614 12.1595 19.5999 12.4622 19.3559 12.6669Z" fill="#6418C3"/>
<path d="M14 16.7917C14.6443 16.7917 15.1667 16.2134 15.1667 15.5C15.1667 14.7867 14.6443 14.2084 14 14.2084C13.3556 14.2084 12.8333 14.7867 12.8333 15.5C12.8333 16.2134 13.3556 16.7917 14 16.7917Z" fill="#6418C3"/>
</svg>
