<svg width="28" height="28" viewBox="0 0 28 28" fill="none" xmlns="http://www.w3.org/2000/svg">
<path d="M21 10.8948C21.0001 9.90833 20.8548 8.92722 20.5686 7.98284C20.1624 6.63949 19.4775 5.39606 18.5584 4.33298C17.6393 3.26991 16.5063 2.41089 15.2329 1.81148C13.9594 1.21208 12.5738 0.885647 11.1657 0.85331C9.7576 0.820973 8.35837 1.08345 7.05853 1.62376C5.75869 2.16407 4.5872 2.97018 3.61986 3.98993C2.65252 5.00968 1.91088 6.22035 1.44291 7.54362C0.974947 8.86689 0.791084 10.2733 0.903219 11.6718C1.01535 13.0703 1.42099 14.4298 2.09388 15.6623L0.908258 19.8076C0.871159 19.9373 0.864785 20.0738 0.889639 20.2064C0.914492 20.3389 0.969894 20.464 1.05149 20.5716C1.13308 20.6792 1.23863 20.7665 1.35984 20.8266C1.48105 20.8867 1.61461 20.918 1.75001 20.918C1.83106 20.9178 1.91172 20.9066 1.98976 20.8848L6.15213 19.703C6.7427 20.0253 7.36561 20.285 8.01063 20.4778C8.95856 20.77 9.94524 20.9184 10.9375 20.918C13.6053 20.915 16.163 19.858 18.0494 17.9789C19.9359 16.0999 20.997 13.5522 21 10.8948Z" fill="#111010"/>
<path d="M27.0918 25.9086L25.9062 21.7633C27.1171 19.5433 27.4401 16.9492 26.8104 14.5017C26.1807 12.0542 24.6448 9.93466 22.5111 8.56848C22.8617 10.2766 22.826 12.0411 22.4065 13.7337C21.9871 15.4264 21.1944 17.0047 20.0862 18.3542C18.9779 19.7036 17.5819 20.7903 15.9994 21.5353C14.417 22.2802 12.6878 22.6648 10.9375 22.6611C10.1576 22.6587 9.37995 22.5784 8.61615 22.4214C9.53101 23.8251 10.7819 24.9803 12.2563 25.7828C13.7307 26.5854 15.3824 27.0102 17.0625 27.019C18.7348 27.0192 20.3803 26.6018 21.8488 25.8048L26.0103 26.9858C26.0883 27.0076 26.169 27.0188 26.25 27.019C26.3854 27.019 26.519 26.9877 26.6402 26.9276C26.7614 26.8675 26.867 26.7802 26.9485 26.6726C27.0301 26.565 27.0855 26.4399 27.1104 26.3074C27.1352 26.1748 27.1289 26.0383 27.0918 25.9086Z" fill="#111010"/>
</svg>
