<svg width="28" height="25" viewBox="0 0 28 25" fill="none" xmlns="http://www.w3.org/2000/svg">
<path d="M20.9784 24.9998C15.4168 24.9932 10.085 22.963 6.15239 19.3544C2.21974 15.7458 0.00720883 10.8534 0 5.75006C0 4.22509 0.660195 2.76257 1.83535 1.68426C3.0105 0.605936 4.60435 0.000142866 6.26627 0.000142866C6.61819 -0.00231685 6.96952 0.0269904 7.31519 0.0876416C7.64936 0.133017 7.97787 0.208377 8.296 0.312638C8.51974 0.384674 8.71912 0.509052 8.87442 0.673474C9.02971 0.837895 9.13554 1.03666 9.18145 1.25013L11.0477 8.75002C11.098 8.9536 11.092 9.16549 11.0301 9.36637C10.9682 9.56724 10.8525 9.7507 10.6935 9.9C10.5164 10.075 10.5028 10.0875 8.82727 10.8875C10.1691 13.5885 12.5233 15.7576 15.4613 16.9999C16.3468 15.4499 16.3604 15.4374 16.5511 15.2749C16.7138 15.129 16.9138 15.0229 17.1327 14.9661C17.3516 14.9093 17.5825 14.9038 17.8044 14.9499L25.9778 16.6624C26.203 16.7104 26.4111 16.8101 26.5827 16.9522C26.7543 17.0944 26.8837 17.2742 26.9586 17.4749C27.0736 17.7716 27.1602 18.0769 27.2174 18.3874C27.2722 18.7015 27.2996 19.0192 27.2992 19.3374C27.274 20.8558 26.5953 22.3035 25.4111 23.3644C24.2268 24.4253 22.6333 25.0132 20.9784 24.9998Z" fill="#231F20"/>
</svg>
