<svg width="15" height="10" viewBox="0 0 15 10" fill="none" xmlns="http://www.w3.org/2000/svg">
<path fill-rule="evenodd" clip-rule="evenodd" d="M0 9.44444C0 9.2971 0.0718343 9.15579 0.1997 9.05161C0.327566 8.94742 0.500989 8.88889 0.681818 8.88889H14.3182C14.499 8.88889 14.6724 8.94742 14.8003 9.05161C14.9282 9.15579 15 9.2971 15 9.44444C15 9.59179 14.9282 9.7331 14.8003 9.83728C14.6724 9.94147 14.499 10 14.3182 10H0.681818C0.500989 10 0.327566 9.94147 0.1997 9.83728C0.0718343 9.7331 0 9.59179 0 9.44444ZM0 5C0 4.85266 0.0718343 4.71135 0.1997 4.60716C0.327566 4.50298 0.500989 4.44444 0.681818 4.44444H14.3182C14.499 4.44444 14.6724 4.50298 14.8003 4.60716C14.9282 4.71135 15 4.85266 15 5C15 5.14734 14.9282 5.28865 14.8003 5.39284C14.6724 5.49702 14.499 5.55556 14.3182 5.55556H0.681818C0.500989 5.55556 0.327566 5.49702 0.1997 5.39284C0.0718343 5.28865 0 5.14734 0 5ZM0 0.555556C0 0.408213 0.0718343 0.266905 0.1997 0.162719C0.327566 0.0585317 0.500989 0 0.681818 0H14.3182C14.499 0 14.6724 0.0585317 14.8003 0.162719C14.9282 0.266905 15 0.408213 15 0.555556C15 0.702898 14.9282 0.844206 14.8003 0.948393C14.6724 1.05258 14.499 1.11111 14.3182 1.11111H0.681818C0.500989 1.11111 0.327566 1.05258 0.1997 0.948393C0.0718343 0.844206 0 0.702898 0 0.555556Z" fill="white"/>
</svg>
