<svg width="24" height="24" viewBox="0 0 24 24" fill="none" xmlns="http://www.w3.org/2000/svg">
<path d="M7.20003 0H3.60001C1.61178 0 0 1.60548 0 3.58594V7.17188C0 9.15234 1.61178 10.7578 3.60001 10.7578H7.20003C9.18826 10.7578 10.8 9.15234 10.8 7.17188V3.58594C10.8 1.60548 9.18826 0 7.20003 0Z" fill="#504141"/>
<path d="M20.4 0H16.8C14.8117 0 13.2 1.60548 13.2 3.58594V7.17188C13.2 9.15234 14.8117 10.7578 16.8 10.7578H20.4C22.3882 10.7578 24 9.15234 24 7.17188V3.58594C24 1.60548 22.3882 0 20.4 0Z" fill="#504141"/>
<path d="M7.20003 13.1485H3.60001C1.61178 13.1485 0 14.754 0 16.7344V20.3204C0 22.3008 1.61178 23.9063 3.60001 23.9063H7.20003C9.18826 23.9063 10.8 22.3008 10.8 20.3204V16.7344C10.8 14.754 9.18826 13.1485 7.20003 13.1485Z" fill="#504141"/>
<path d="M20.4 13.1485H16.8C14.8117 13.1485 13.2 14.754 13.2 16.7344V20.3204C13.2 22.3008 14.8117 23.9063 16.8 23.9063H20.4C22.3882 23.9063 24 22.3008 24 20.3204V16.7344C24 14.754 22.3882 13.1485 20.4 13.1485Z" fill="#504141"/>
</svg>
