<svg width="73" height="73" viewBox="0 0 73 73" fill="none" xmlns="http://www.w3.org/2000/svg">
<path fill-rule="evenodd" clip-rule="evenodd" d="M5 6.5C5 4.57003 6.57018 3 8.5 3C10.4298 3 12 4.57018 12 6.5C12 8.42982 10.4298 10 8.5 10C6.57018 10 5 8.42997 5 6.5ZM7.1868 6.5C7.1868 7.22404 7.77596 7.8132 8.5 7.8132C9.22404 7.8132 9.8132 7.22419 9.8132 6.5C9.8132 5.77581 9.22404 5.1868 8.5 5.1868C7.77596 5.1868 7.1868 5.77596 7.1868 6.5Z" fill="white"/>
<path fill-rule="evenodd" clip-rule="evenodd" d="M13 6.5C13 4.57003 14.5702 3 16.5 3C18.4298 3 20 4.57018 20 6.5C20 8.42982 18.43 10 16.5 10C14.5702 10 13 8.42997 13 6.5ZM15.1869 6.5C15.1869 7.22404 15.7761 7.8132 16.5001 7.8132C17.224 7.8132 17.8133 7.22419 17.8133 6.5C17.8133 5.77581 17.2242 5.1868 16.5001 5.1868C15.7761 5.1868 15.1869 5.77596 15.1869 6.5Z" fill="white"/>
<path fill-rule="evenodd" clip-rule="evenodd" d="M21 6.5C21 4.57003 22.57 3 24.5 3C26.4298 3 28 4.57018 28 6.5C28 8.42982 26.4298 10 24.5 10C22.5702 10 21 8.42997 21 6.5ZM23.1868 6.5C23.1868 7.22404 23.7758 7.8132 24.5 7.8132C25.224 7.8132 25.8132 7.22404 25.8132 6.5C25.8132 5.77596 25.224 5.1868 24.5 5.1868C23.7758 5.1868 23.1868 5.77596 23.1868 6.5Z" fill="white"/>
<path d="M67.2816 0.000142905H25.5365C24.9378 0.000142905 24.4523 0.486592 24.4523 1.08679C24.4523 1.68685 24.9377 2.17345 25.5365 2.17345H67.2816C69.2391 2.17345 70.8319 3.76898 70.8319 5.73036V11.9356H2.16881V5.73022C2.16881 3.76898 3.76074 2.1733 5.71767 2.1733H21.9225C22.5212 2.1733 23.0067 1.68685 23.0067 1.08665C23.0067 0.486592 22.5214 0 21.9225 0H5.71753C2.56519 0.000142905 0.000427745 2.57058 0.000427745 5.73022V13.0124C0.000427745 13.0157 0 13.019 0 13.0222C0 13.0255 0.000427745 13.0288 0.000427745 13.0321V50.2698C0.000427745 53.4294 2.56505 55.9999 5.71753 55.9999H25.3192C25.9179 55.9999 26.4034 55.5134 26.4034 54.9132C26.4034 54.313 25.9181 53.8266 25.3192 53.8266H5.71753C3.76074 53.8266 2.16867 52.231 2.16867 50.2696V14.1089H70.8318V50.2698C70.8318 52.231 69.2391 53.8267 67.2815 53.8267C66.6828 53.8267 66.1973 54.3131 66.1973 54.9133C66.1973 55.5135 66.6826 56 67.2815 56C70.4347 56 73 53.4296 73 50.2699V5.73022C73.0001 2.57058 70.4347 0.000142905 67.2816 0.000142905Z" fill="white"/>
<path fill-rule="evenodd" clip-rule="evenodd" d="M64.8545 47.0349L64.855 47.0361C65.6281 48.7434 66.4273 50.5091 65.7364 52.176C65.0175 53.9095 63.0763 54.6317 61.3634 55.269L61.3628 55.2691C60.2989 55.6648 59.1986 56.0743 58.6366 56.6364C58.0746 57.1985 57.6653 58.2984 57.2696 59.362L57.2693 59.3627C56.6321 61.0756 55.9098 63.0172 54.1761 63.7361C52.5092 64.4275 50.7438 63.6283 49.0365 62.8553L49.0361 62.8551L49.0349 62.8546C47.9661 62.3708 46.8611 61.8705 46.0001 61.8705C45.1391 61.8705 44.0341 62.3708 42.9654 62.8546L42.9641 62.8551C41.7154 63.4205 40.4355 63.9999 39.1858 63.9999C38.7266 63.9999 38.2718 63.922 37.824 63.7362C36.0905 63.0173 35.3684 61.0765 34.7312 59.3637L34.7308 59.3627C34.3351 58.2985 33.9258 57.1985 33.3636 56.6364C32.8015 56.0744 31.7016 55.6652 30.638 55.2694L30.6373 55.2691C28.9244 54.632 26.9827 53.9097 26.2639 52.176C25.5725 50.5089 26.3718 48.7434 27.1448 47.036L27.1454 47.0348C27.6292 45.966 28.1294 44.861 28.1294 44C28.1294 43.139 27.6292 42.0339 27.1454 40.9652L27.1448 40.964C26.3718 39.2567 25.5725 37.4912 26.2639 35.824C26.9827 34.0905 28.9238 33.3683 30.6368 32.731L30.6373 32.7308C31.7013 32.335 32.8013 31.9256 33.3636 31.3636C33.9255 30.8015 34.3348 29.7016 34.7305 28.6379L34.7308 28.6373C35.368 26.9242 36.0903 24.9827 37.824 24.2639C39.4912 23.5725 41.2565 24.3718 42.9639 25.1448L42.964 25.1448L42.9652 25.1454C44.034 25.6292 45.139 26.1294 46 26.1294C46.861 26.1294 47.966 25.6292 49.0348 25.1454L49.036 25.1448C50.7433 24.3718 52.5091 23.5726 54.176 24.2639C55.9094 24.9826 56.6317 26.9238 57.2689 28.6367L57.2692 28.6374C57.6647 29.7015 58.074 30.8016 58.6363 31.3637C59.1984 31.9257 60.2983 32.3349 61.3619 32.7307L61.3626 32.7309C63.0755 33.3681 65.0171 34.0904 65.736 35.8241C66.4273 37.491 65.6281 39.2565 64.855 40.964L64.8542 40.9657C64.3705 42.0344 63.8704 43.1392 63.8704 44.0001C63.8704 44.8611 64.3707 45.9662 64.8545 47.0349ZM62.8699 47.9358L62.8695 47.935C62.2901 46.6552 61.691 45.3317 61.6916 44C61.6916 42.6683 62.2907 41.3448 62.8701 40.065L62.8704 40.0642C63.4516 38.7803 64.0525 37.4529 63.7233 36.6588C63.3678 35.8019 61.9622 35.2789 60.603 34.7733L60.6019 34.7729C59.3194 34.2958 57.9935 33.8025 57.0955 32.9045C56.1973 32.0063 55.7037 30.6799 55.2266 29.3971L55.2262 29.3959C54.7206 28.0371 54.1978 26.6322 53.3412 26.277C52.5475 25.9476 51.221 26.548 49.9376 27.1289L49.9349 27.1302L49.9331 27.1309C48.6537 27.71 47.3309 28.3087 45.9998 28.3087C44.6682 28.3087 43.3448 27.7096 42.0648 27.1302L42.0644 27.13C41.0331 26.6631 39.9735 26.1834 39.1849 26.1834C38.9916 26.1834 38.8149 26.2122 38.6585 26.277C37.8016 26.6323 37.2787 28.0379 36.773 29.3971C36.2959 30.6799 35.8025 32.0066 34.9042 32.9046C34.0059 33.8028 32.6795 34.2964 31.3967 34.7735L31.3963 34.7736C30.0372 35.2792 28.6318 35.802 28.2766 36.6588C27.9472 37.4526 28.5481 38.78 29.1292 40.0638L29.1297 40.065L29.1305 40.0667C29.7096 41.3461 30.3082 42.6689 30.3082 44C30.3082 45.3317 29.7092 46.655 29.1297 47.935L29.1294 47.9357C28.5482 49.2196 27.9473 50.5471 28.2766 51.3412C28.6319 52.198 30.0375 52.721 31.3967 53.2266L31.3982 53.2272C32.6805 53.7042 34.0064 54.1975 34.9042 55.0954C35.8025 55.9936 36.2959 57.32 36.773 58.6028L36.7733 58.6035C37.279 59.9626 37.8018 61.3677 38.6585 61.7231C39.4523 62.0523 40.7799 61.4514 42.0639 60.8703L42.0647 60.8699L42.0664 60.8691C43.3458 60.2901 44.6686 59.6914 45.9997 59.6914C47.3314 59.6914 48.6548 60.2905 49.9347 60.8699L49.935 60.8701C51.2192 61.4514 52.5468 62.0525 53.3409 61.7231C54.1976 61.3678 54.7206 59.9622 55.2262 58.603C55.7033 57.3201 56.1967 55.9937 57.095 55.0954C57.9932 54.1971 59.3196 53.7037 60.6024 53.2266L60.6025 53.2266C61.9618 52.721 63.3674 52.1982 63.7227 51.3413C64.0521 50.5474 63.4511 49.2197 62.8699 47.9358Z" fill="white"/>
<path d="M46.5001 32C45.6901 32 44.8793 32.075 44.0907 32.2228C43.4947 32.3346 43.1058 32.889 43.2222 33.4614C43.3387 34.0337 43.9161 34.4068 44.5124 34.2951C45.1625 34.1732 45.8313 34.1115 46.5003 34.1115C52.1801 34.1115 56.801 38.5475 56.801 44.0001C56.801 49.4527 52.1801 53.8887 46.5003 53.8887C40.8205 53.8887 36.1996 49.4527 36.1996 44.0001C36.1996 40.7099 37.8976 37.6442 40.7418 35.7997C41.2449 35.4733 41.3774 34.817 41.0374 34.3339C40.6974 33.851 40.0139 33.724 39.5105 34.0501C36.0602 36.2879 34 40.0075 34 44.0001C34 50.6168 39.6075 56 46.5 56C53.3925 56 59 50.6168 59 44.0001C59 37.3833 53.3929 32 46.5001 32Z" fill="white"/>
<path d="M44.4297 63.4198C43.901 63.1243 43.2397 63.3265 42.9529 63.8718L39.7202 70.0186L36.0583 66.2431C35.8961 66.0757 35.6867 65.9654 35.4599 65.9282L30.7131 65.1462L33.3305 59.6158C33.5942 59.0583 33.3699 58.3859 32.8292 58.114C32.2883 57.842 31.6364 58.0734 31.3725 58.6308L28.1103 65.5236C27.9591 65.8435 27.9635 66.2183 28.1227 66.5339C28.2818 66.8496 28.5765 67.0689 28.9175 67.1252L34.7675 68.0889L39.2118 72.6711C39.4176 72.8833 39.6953 73 39.9819 73C40.0339 73 40.0864 72.9962 40.1387 72.9883C40.4788 72.9374 40.7759 72.7239 40.9396 72.4123L44.8681 64.9425C45.1548 64.3971 44.9587 63.7154 44.4297 63.4198Z" fill="white"/>
<path d="M64.8897 65.5236L61.6271 58.6308C61.3633 58.0734 60.7112 57.842 60.1704 58.114C59.6297 58.386 59.4053 59.0584 59.6691 59.6159L62.2865 65.1462L57.5397 65.9281C57.3129 65.9655 57.1036 66.0757 56.9413 66.243L53.2795 70.0185L50.0471 63.8719C49.7603 63.3268 49.0993 63.1244 48.5702 63.42C48.0415 63.7157 47.8452 64.3973 48.1319 64.9426L52.0603 72.4123C52.2242 72.7239 52.5212 72.9374 52.8613 72.9883C52.9136 72.9963 52.9659 73 53.018 73C53.3047 73 53.5825 72.8832 53.7882 72.6711L58.2324 68.089L64.0824 67.1253C64.4231 67.0691 64.718 66.8498 64.8772 66.534C65.0364 66.2182 65.0411 65.8435 64.8897 65.5236Z" fill="white"/>
</svg>
