<svg width="22" height="22" viewBox="0 0 22 22" fill="none" xmlns="http://www.w3.org/2000/svg">
<path d="M3.07366 8.20447C3.67086 5.65851 5.65876 3.67061 8.20473 3.07341C10.0434 2.64211 11.9569 2.64212 13.7956 3.07341C16.3415 3.67061 18.3294 5.65852 18.9266 8.20448C19.3579 10.0431 19.3579 11.9567 18.9266 13.7953C18.3294 16.3413 16.3415 18.3292 13.7956 18.9264C11.9569 19.3577 10.0434 19.3577 8.20473 18.9264C5.65877 18.3292 3.67086 16.3413 3.07366 13.7953C2.64236 11.9567 2.64236 10.0431 3.07366 8.20447Z" fill="#3BCBB2" fill-opacity="0.15" stroke="#858727" stroke-width="1.35"/>
<path d="M10.9998 7.79153L10.9998 14.2082M10.9998 14.2082L13.2914 11.9165M10.9998 14.2082L8.7081 11.9165" stroke="#858727" stroke-width="1.35" stroke-linecap="round" stroke-linejoin="round"/>
</svg>
